<?xml version="1.0" standalone="no"?>
<!DOCTYPE svg PUBLIC "-//W3C//DTD SVG 1.0//EN" "http://www.w3.org/TR/2001/REC-SVG-20010904/DTD/svg10.dtd">
<svg xmlns="http://www.w3.org/2000/svg" xmlns:xlink="http://www.w3.org/1999/xlink" id="body_1" width="256" height="192">

<g transform="matrix(0.375 0 0 0.375 32.000008 -0)">
    <path d="M345 513C 230.02794 513 115.55587 513 1.0419 513C 1.0419 342.40292 1.0419 171.80582 1.0419 1.104355C 171.5554 1.104355 342.1109 1.104355 512.8332 1.104355C 512.8332 171.66653 512.8332 342.33325 512.8332 513C 457.13907 513 401.31955 513 345 513zM110.14923 397.00467C 109.1477 397.29874 107.28304 397.56592 107.27292 397.89087C 107.09541 403.59033 107.14462 409.2968 107.14462 415.0018C 107.83115 415.02188 108.51766 415.04193 109.204185 415.06198C 109.45568 413.2983 109.73804 411.53833 109.952194 409.77014C 110.38364 406.20798 110.77794 402.6413 111.884346 398.8889C 117.0658 397.7726 118.70845 398.89197 118.91237 403.86877C 119.065796 407.6132 119.053665 411.36438 119.11523 415.11255C 119.9748 415.0768 120.834366 415.04105 121.69394 415.0053C 121.69394 410.50833 122.17951 405.94476 121.57455 401.5307C 120.76629 395.63327 116.63574 394.10663 110.14923 397.00467zM183.02242 101.51839C 149.97948 141.51237 154.70335 199.8801 193.62508 232.52325C 233.82503 266.23846 292.24362 261.62613 325.741 222.0923C 358.84375 183.02419 354.3164 124.36603 315.62338 91.00431C 276.22687 57.036022 217.78754 61.450336 183.02242 101.51839zM219.76273 339.18033C 218.34276 344.2964 216.76933 349.3764 215.5559 354.541C 214.72325 358.0848 216.86647 360.61713 219.97469 361.22232C 221.08765 361.439 223.48901 358.81677 224.12209 357.064C 226.83325 349.5575 229.07956 341.88397 231.5526 334.28998C 232.18903 332.3357 233.0338 330.44925 234.25543 327.32193C 235.25044 330.01538 235.64027 331.4321 236.27565 332.72842C 239.11629 338.52377 241.19281 344.959 245.15543 349.86176C 248.84894 354.43155 254.39803 357.649 259.5421 360.7866C 260.70615 361.49658 264.40375 360.0018 265.47253 358.48874C 267.34845 355.83313 266.23526 352.75473 263.08026 351.54163C 253.97015 348.0387 249.83482 340.33066 246.16638 332.193C 242.05446 323.07153 242.33794 322.1079 250.09843 316.09787C 250.2298 315.99615 250.35034 315.88025 250.48322 315.78064C 260.69733 308.1241 270.82275 300.34436 281.17978 292.8862C 284.42032 290.55267 284.52106 288.41922 282.64432 285.35513C 280.7613 282.28085 278.70554 282.38986 276.06885 284.363C 268.6111 289.9439 261.04953 295.38617 253.59877 300.97623C 249.65984 303.9315 245.86647 307.0807 242.00737 310.14233C 241.69006 308.043 242.15433 306.53683 242.80124 305.11374C 245.07465 300.1126 247.4307 295.1491 249.71631 290.15344C 251.25153 286.79797 251.5029 283.04196 247.9084 281.43842C 244.33882 279.84598 241.7396 282.31613 240.35158 285.9272C 233.61797 303.44504 226.814 320.93588 219.76273 339.18033zM210.39827 334.80246C 214.12509 328.54822 214.2025 323.44257 210.63618 319.10614C 207.43956 315.21918 203.55399 314.5485 196.50282 317.33627C 192.71954 318.83203 189.22166 321.04962 184.94026 323.28305C 185.108 321.5046 184.95277 320.17383 185.38458 319.0734C 187.56825 313.5086 189.81076 307.96246 192.21596 302.49036C 194.28899 297.77396 196.58965 293.15686 198.82484 288.51276C 200.51396 285.00323 198.46521 283.43637 195.74126 281.87192C 192.84662 280.20935 191.39168 281.5998 190.27284 283.96243C 188.07106 288.61197 185.58058 293.1707 183.88048 298.00302C 179.42429 310.66928 175.2912 323.45007 171.11327 336.21274C 169.91353 339.87775 171.23059 343.30493 174.58134 344.47623C 176.05426 344.99112 178.87292 342.56448 180.69093 341.01602C 186.47125 336.09268 191.95493 330.81506 197.83589 326.0211C 198.95729 325.107 201.3682 325.77475 203.18416 325.71268C 202.87143 327.38647 203.05786 329.4128 202.16513 330.677C 196.28989 338.99683 189.10896 345.68515 178.77199 348.09946C 178.08652 348.25958 177.54005 349.01486 176.89883 349.51685C 178.57155 354.11316 181.65973 355.6014 186.01102 354.3836C 196.62459 351.41315 204.47595 344.88812 210.39827 334.80246zM111.46423 363.0847C 120.418945 363.9257 128.8338 362.68866 135.59822 356.14957C 136.82457 354.96408 137.20633 352.90488 137.978 351.24902C 136.22653 350.8802 134.38216 349.96515 132.74086 350.24426C 127.66572 351.1073 122.712875 352.71802 117.62964 353.49838C 109.9232 354.68152 105.9056 351.0322 106.91237 343.39877C 107.64517 337.84256 108.63495 332.03674 110.980095 327.03085C 117.528046 313.05353 124.95097 299.4881 131.71202 285.60596C 132.56767 283.8491 131.53407 281.17206 131.37576 278.92136C 129.30762 279.1702 126.99123 278.92746 125.24314 279.81018C 123.589905 280.645 122.402214 282.5663 121.23479 284.17325C 109.32958 300.56052 101.783165 318.94016 97.22463 338.52493C 94.29381 351.1166 99.498924 359.97253 111.46423 363.0847zM407.75565 315.42694C 410.15042 315.295 412.68167 315.33173 412.17987 311.72855C 411.74118 308.57828 409.70633 307.7153 406.83646 307.84656C 404.61813 307.948 402.39148 307.8668 399.1558 307.8668C 401.17944 304.40887 402.94736 301.84952 404.19348 299.05725C 404.78592 297.7298 405.0355 295.2699 404.27722 294.5525C 403.1871 293.52115 400.8402 292.95926 399.3872 293.39337C 397.66977 293.90652 395.99045 295.45114 394.90656 296.9819C 392.99426 299.68256 391.81906 302.9235 389.80243 305.52515C 388.55536 307.13397 386.36725 308.05316 384.52188 309.14755C 382.58682 310.29517 380.55652 311.28223 378.5678 312.33942C 380.07138 313.7346 381.5806 315.1238 383.07278 316.53107C 383.3051 316.75015 383.4599 317.0515 383.82938 317.56177C 383.20087 319.08554 382.30884 320.6963 381.86484 322.42227C 380.13892 329.1315 377.7744 335.8015 377.11124 342.6283C 376.22906 351.709 382.45026 357.4344 391.35226 355.6645C 396.4588 354.6492 401.2539 351.53638 405.8228 348.764C 406.82346 348.15686 406.26675 344.98315 406.42725 342.99142C 404.81757 343.15405 403.14404 343.09103 401.61093 343.52448C 397.98065 344.55078 394.48752 346.19305 390.80716 346.87567C 386.9183 347.597 385.1923 345.31763 386.04956 341.51077C 387.1805 336.48877 388.3254 331.45157 389.84964 326.5405C 392.60794 317.65314 394.2529 316.50427 403.4289 315.88156C 404.5899 315.8028 405.74496 315.63687 407.75565 315.42694zM331.03888 328.54434C 333.46915 316.32007 325.3289 310.76175 316.39423 313.36792C 304.99387 316.69336 294.0471 332.24152 294.80475 344.139C 295.2517 351.15744 300.94992 355.93918 307.71634 354.27344C 320.7551 351.06363 327.32242 341.5137 331.03888 328.54434zM371.01697 327.3061C 371.3949 325.694 371.92813 324.1 372.11865 322.46606C 372.5243 318.98758 371.4616 315.39572 367.80746 315.42908C 365.84918 315.44696 363.67297 318.78867 362.08005 320.98257C 361.1886 322.2104 361.62012 324.3302 360.88254 325.75046C 358.0031 331.29495 355.062 336.826 351.73428 342.10376C 351.0494 343.18994 348.6037 343.16583 346.96964 343.6535C 346.6091 342.0061 345.59833 340.17087 346.0098 338.7465C 347.24966 334.4545 349.0947 330.34082 350.60083 326.1209C 351.49026 323.62878 352.61185 321.0977 352.79623 318.52444C 352.8961 317.13043 351.56775 314.9426 350.29944 314.3375C 349.04346 313.73828 346.0705 314.10968 345.53693 315.03146C 340.26935 324.13144 335.47748 333.54974 335.94962 344.4617C 336.26837 351.82922 343.5702 355.6004 350.03394 351.9597C 352.72864 350.4418 355.15195 348.44205 358.00275 346.44882C 358.86163 348.81378 359.5063 351.02438 360.4532 353.0969C 361.9728 356.423 364.9829 357.35025 367.92786 355.9033C 371.28964 354.25143 369.83978 351.23758 368.2361 349.14227C 365.58905 345.68375 365.51526 342.14185 366.90552 338.33237C 368.15726 334.90247 369.49155 331.50266 371.01697 327.3061zM290.02716 299.4221C 288.96097 302.2188 287.81952 304.98956 286.84174 307.81686C 282.83658 319.3982 278.54388 330.89838 275.1152 342.64963C 274.09918 346.1319 275.30368 350.39215 276.0642 354.1808C 276.28287 355.27002 278.80316 356.90005 279.73816 356.60464C 281.09695 356.1753 282.52017 354.3811 282.94867 352.89084C 283.95364 349.39566 283.92102 345.57098 285.12753 342.1703C 290.4518 327.163 296.06284 312.25742 301.57822 297.31802C 302.61194 294.518 304.72043 291.62164 304.4389 288.97092C 304.16882 286.42807 301.93597 283.09326 299.66187 282.01797C 296.84604 280.68652 295.30017 283.4669 294.51205 286.4328C 293.40515 290.59827 291.72775 294.61212 290.02716 299.4221zM151.06235 328.51562C 149.89714 331.8015 148.43954 335.0183 147.64267 338.39124C 146.7021 342.3723 145.91675 346.49 145.93246 350.5451C 145.93826 352.04794 148.18683 354.29315 149.8293 354.7727C 150.91084 355.0885 153.58829 353.15103 154.08911 351.71326C 156.97769 343.42047 159.84055 335.06604 161.71977 326.51443C 162.14696 324.57043 159.16327 320.75183 156.84969 319.5937C 153.36032 317.84702 153.4347 321.92636 152.53313 323.9819C 152.00362 325.18918 151.72466 326.5064 151.06235 328.51562zM200.79005 399.05377C 201.40436 402.9063 201.99756 406.7624 202.6435 410.60962C 202.89572 412.11176 203.26651 413.594 203.5833 415.0853C 204.15866 415.0089 204.73404 414.93256 205.3094 414.85617C 205.3094 410.63846 205.5649 406.40134 205.24562 402.20792C 204.8336 396.79663 200.85316 394.41428 195.70314 396.12622C 194.63618 396.4809 193.54652 397.28705 192.53305 397.191C 188.5741 396.81604 184.64154 396.16254 180.59886 395.59854C 180.59886 402.67862 180.59886 408.8746 180.59886 415.0706C 181.06354 415.11835 181.52821 415.1661 181.99289 415.21387C 182.28574 414.0967 182.77383 412.98962 182.83228 411.86035C 182.96968 409.20517 182.87788 406.53897 182.92355 403.878C 182.97246 401.02814 183.4788 398.24106 187.08069 398.29257C 190.76 398.3452 190.95378 401.2886 191.00829 404.05722C 191.05737 406.55176 190.94992 409.05243 191.08612 411.54083C 191.15376 412.7764 191.61336 413.9905 191.89563 415.21432C 192.6311 415.15805 193.36656 415.10178 194.10204 415.0455C 194.10204 411.41464 193.96222 407.7769 194.14127 404.15488C 194.32121 400.51443 195.2443 397.35013 200.79005 399.05377zM355.65085 395.70184C 353.7294 395.96378 351.80792 396.22574 349.63745 396.52164C 349.63745 404.99228 349.63745 413.5236 349.63745 422.05487C 350.124 422.14148 350.61057 422.2281 351.0971 422.3147C 351.6864 420.06403 352.2757 417.81335 352.85553 415.59875C 361.41385 416.1603 364.65695 413.906 365.18582 407.17215C 365.76862 399.75168 363.10205 396.21268 355.65085 395.70184zM279.8859 404.44003C 279.85736 399.21265 279.8288 393.98526 279.80026 388.75787C 279.0582 388.73117 278.3161 388.70447 277.57404 388.67776C 277.17047 391.06323 276.7669 393.44867 276.37283 395.77817C 266.8562 395.30954 263.54663 398.088 263.75897 406.08347C 263.9763 414.2662 266.9469 415.92313 279.88586 414.6032C 279.88586 411.59473 279.88586 408.5015 279.8859 404.44003zM235.52429 401.27966C 233.75221 399.3983 232.2771 396.57642 230.1255 395.89703C 227.92352 395.20178 225.05865 396.60605 222.48395 397.0913C 222.53653 397.6947 222.58913 398.2981 222.64171 398.9015C 225.89458 399.7463 231.54913 395.23343 232.37273 402.79987C 230.2781 402.79987 228.64319 402.69693 227.02536 402.81955C 222.51494 403.16138 220.06345 406.22034 220.71028 410.57388C 221.27997 414.40823 224.696 416.5619 228.90118 415.72232C 230.96178 415.3109 233.01671 414.87106 235.6329 414.3282C 235.6329 410.347 235.6329 406.24 235.52429 401.27966zM255.27013 397.31656C 251.27164 396.7443 247.27315 396.17203 243.3247 395.60693C 241.80821 405.05286 242.37091 412.72516 245.0956 415.45303C 245.33142 410.68832 245.18332 406.42496 245.92816 402.3238C 246.21254 400.758 248.35237 398.94455 250.01219 398.4351C 250.9896 398.13507 253.28992 399.89444 253.90436 401.2296C 254.68076 402.9167 254.3626 405.1139 254.4874 407.09286C 254.65198 409.70264 254.78824 412.31418 254.93668 414.925C 255.61072 414.8912 256.28476 414.85742 256.9588 414.8236C 257.07672 409.18613 258.3471 403.5433 255.27013 397.31656zM396.93253 403.82248C 397.66867 406.8072 397.7306 410.21765 399.28796 412.68375C 402.1176 417.16455 407.58252 416.98483 410.58755 412.5807C 406.61044 412.2571 401.09024 414.72314 400.71225 407.22607C 404.86725 407.03415 408.75406 406.85458 412.53693 406.67984C 413.36606 400.511 411.54254 396.83127 407.4727 395.79355C 402.35638 394.48898 399.1895 396.66782 396.93253 403.82248zM142.4813 399.27652C 142.15324 402.80917 141.10886 406.46115 141.67245 409.8453C 142.43394 414.4177 146.97496 416.78 151.09387 415.70703C 155.68565 414.5109 157.3431 411.00284 157.66756 406.77585C 157.98459 402.6457 157.26852 398.53 153.18874 396.48163C 149.4768 394.61795 145.75674 395.13846 142.4813 399.27652zM165.81885 294.62057C 163.92284 295.35663 161.0255 295.5812 160.335 296.933C 158.80101 299.9362 158.07272 303.4768 157.76436 306.86642C 157.70746 307.49197 161.88168 309.60977 162.87395 309.00897C 165.50392 307.41644 168.07857 305.04422 169.51881 302.36142C 171.07675 299.45938 169.59369 296.58478 165.81885 294.62057zM331.593 414.5051C 332.49948 414.90646 333.371 415.5074 334.31873 415.6733C 337.68344 416.26242 340.83286 415.7116 342.12473 412.14343C 343.33984 408.78732 341.5748 406.40884 338.5456 404.91394C 337.20923 404.2544 335.68295 403.86398 334.53555 402.97406C 333.62866 402.27063 333.16898 400.99063 332.51068 399.9667C 333.75137 399.37936 334.9728 398.3696 336.23767 398.31186C 337.8113 398.24008 339.42084 398.95453 342.33655 399.64032C 339.42358 395.29303 336.33447 394.97412 333.3562 395.9855C 331.79825 396.51456 329.45175 398.91873 329.71643 399.79495C 330.3885 402.02017 332.1535 404.0322 333.8356 405.79025C 334.79803 406.7962 336.65295 406.9104 337.73367 407.85306C 338.58786 408.59818 339.60303 410.50476 339.26016 410.9943C 338.56 411.9938 337.0258 412.80957 335.77414 412.90564C 334.60614 412.99524 333.38962 411.93106 332.13367 411.62027C 331.5245 411.4695 330.77637 411.88034 330.09113 412.0369C 330.40576 412.7308 330.72037 413.42474 331.593 414.5051zM132.15182 414.9425C 132.5001 412.41864 133.02403 409.904 133.15662 407.36884C 133.36978 403.29248 131.94714 398.62323 137.88545 397.42398C 136.10838 395.86304 134.75505 394.6743 133.40172 393.48553C 134.82129 392.23053 136.24086 390.97556 137.9644 389.4518C 129.1395 385.07748 131.70268 395.76285 128.21298 396.52628C 128.92479 399.4968 129.66223 401.9761 130.09047 404.50775C 130.67186 407.94455 131.01662 411.4214 132.15182 414.9425zM322.12732 399.75934C 319.02054 392.3009 313.0812 397.1654 308.07474 396.20355C 308.17215 402.77438 307.32343 408.99115 309.44736 415.10062C 310.5918 413.79462 310.9301 412.461 310.9861 411.11566C 311.10382 408.288 310.55292 405.30905 311.28775 402.67422C 311.77255 400.9358 313.86328 398.8203 315.5306 398.52112C 316.67874 398.31512 318.94543 400.68948 319.59955 402.34915C 320.3437 404.2372 319.7981 406.61594 319.90848 408.77652C 320.0171 410.9035 320.24512 413.02438 320.42075 415.14798C 321.11182 415.13602 321.80292 415.12405 322.494 415.1121C 323.33795 410.3242 323.23422 405.46875 322.12732 399.75934zM383.8383 396.12155C 383.6399 402.29443 383.4387 408.46725 383.28244 414.6412C 383.28085 414.7043 383.87216 414.78244 384.58325 414.94327C 387.4521 409.1164 381.15436 398.8442 393.76352 397.566C 393.4028 397.06238 393.04208 396.55878 392.68137 396.05515C 389.97464 396.05515 387.2679 396.05515 383.8383 396.12155zM297.493 414.91003C 298.23212 414.49213 299.61752 414.07004 299.61484 413.65698C 299.56204 405.58368 299.35046 397.5113 299.12714 389.43997C 299.12482 389.35678 298.533 389.28992 298.07294 389.18164C 297.7873 389.44562 297.1519 389.75812 297.1498 390.0748C 297.0965 398.18588 297.1093 406.29736 297.493 414.91003zM95.81315 399.60666C 95.81315 404.75958 95.81315 409.9125 95.81315 416.1789C 98.80188 413.27563 100.030174 396.86456 98.849915 390.73984C 98.63681 389.6339 98.50244 388.5128 98.33172 387.39868C 97.49228 388.04214 96.65283 388.6856 95.81339 389.32907C 95.81339 392.4383 95.81339 395.5475 95.81315 399.60666zM173.2669 398.36548C 175.4686 395.87167 173.43362 395.579 171.67838 395.65714C 169.29222 395.7634 166.92372 396.26584 164.62402 396.5877C 163.01193 406.404 163.78336 413.54062 167.12724 414.87476C 167.12724 411.36276 167.11441 408.07504 167.13068 404.78748C 167.14871 401.13928 168.57422 398.67496 173.2669 398.36548zM371.84738 411.59824C 372.12445 412.7694 372.40155 413.94058 372.93307 416.18713C 375.71362 410.49393 375.30194 398.5843 371.84076 395.19485C 371.84076 401.06363 371.84076 405.918 371.84738 411.59824z" stroke="none" fill="#29478E" fill-rule="nonzero" />
    <path d="M183.25629 101.2518C 217.78754 61.450336 276.22687 57.036022 315.62338 91.00431C 354.3164 124.36603 358.84375 183.02419 325.741 222.0923C 292.24362 261.62613 233.82503 266.23846 193.62508 232.52325C 154.70335 199.8801 149.97948 141.51237 183.25629 101.2518zM234.50023 196.94048C 252.80293 196.94255 271.1075 196.8026 289.40707 197.04396C 294.13416 197.10632 295.80023 195.78714 295.70963 190.90535C 295.43488 176.10185 295.61996 161.29007 295.59583 146.48158C 295.58133 137.61281 296.5702 137.6413 287.333 138.21153C 280.01996 138.66301 274.5733 137.21667 271.05573 130.09233C 270.12076 128.19868 266.6632 126.717766 264.25565 126.54363C 257.63483 126.064804 250.94623 126.17226 244.3074 126.50515C 242.28044 126.6068 239.23058 127.67649 238.52333 129.18282C 234.60152 137.53557 227.9808 139.34633 219.70624 138.09416C 218.89368 137.97122 218.04169 138.13722 217.21371 138.08255C 214.42929 137.89879 213.3414 139.24419 213.34787 141.95287C 213.38841 158.9243 213.40015 175.89595 213.34662 192.8673C 213.33725 195.84161 214.54405 197.0413 217.52806 196.97002C 222.84937 196.84293 228.176 196.93819 234.50023 196.94048z" stroke="none" fill="#D7AB22" fill-rule="nonzero" />
    <path d="M219.89883 338.8083C 226.814 320.93588 233.61797 303.44504 240.35158 285.9272C 241.7396 282.31613 244.33882 279.84598 247.9084 281.43842C 251.5029 283.04196 251.25153 286.79797 249.71631 290.15344C 247.4307 295.1491 245.07465 300.1126 242.80124 305.11374C 242.15433 306.53683 241.69006 308.043 242.00737 310.14233C 245.86647 307.0807 249.65984 303.9315 253.59877 300.97623C 261.04953 295.38617 268.6111 289.9439 276.06885 284.363C 278.70554 282.38986 280.7613 282.28085 282.64432 285.35513C 284.52106 288.41922 284.42032 290.55267 281.17978 292.8862C 270.82275 300.34436 260.69733 308.1241 250.48322 315.78064C 250.35034 315.88025 250.2298 315.99615 250.09843 316.09787C 242.33794 322.1079 242.05446 323.07153 246.16638 332.193C 249.83482 340.33066 253.97015 348.0387 263.08026 351.54163C 266.23526 352.75473 267.34845 355.83313 265.47253 358.48874C 264.40375 360.0018 260.70615 361.49658 259.5421 360.7866C 254.39803 357.649 248.84894 354.43155 245.15543 349.86176C 241.19281 344.959 239.11629 338.52377 236.27565 332.72842C 235.64027 331.4321 235.25044 330.01538 234.25543 327.32193C 233.0338 330.44925 232.18903 332.3357 231.5526 334.28998C 229.07956 341.88397 226.83325 349.5575 224.12209 357.064C 223.48901 358.81677 221.08765 361.439 219.97469 361.22232C 216.86647 360.61713 214.72325 358.0848 215.5559 354.541C 216.76933 349.3764 218.34276 344.2964 219.89883 338.8083z" stroke="none" fill="#D3A92F" fill-rule="nonzero" />
    <path d="M210.19969 335.1233C 204.47595 344.88812 196.62459 351.41315 186.01102 354.3836C 181.65973 355.6014 178.57155 354.11316 176.89883 349.51685C 177.54005 349.01486 178.08652 348.25958 178.77199 348.09946C 189.10896 345.68515 196.28989 338.99683 202.16513 330.677C 203.05786 329.4128 202.87143 327.38647 203.18414 325.71268C 201.3682 325.77475 198.95729 325.107 197.83589 326.0211C 191.95493 330.81506 186.47125 336.09268 180.69093 341.01602C 178.87292 342.56448 176.05426 344.99112 174.58134 344.47623C 171.23059 343.30493 169.91353 339.87775 171.11327 336.21274C 175.2912 323.45007 179.42429 310.66928 183.88048 298.00302C 185.58058 293.1707 188.07106 288.61197 190.27284 283.96243C 191.39168 281.5998 192.84662 280.20935 195.74126 281.87192C 198.46521 283.43637 200.51396 285.00323 198.82484 288.51276C 196.58965 293.15686 194.28899 297.77396 192.21596 302.49036C 189.81076 307.96246 187.56825 313.5086 185.38458 319.0734C 184.95277 320.17383 185.108 321.5046 184.94026 323.28305C 189.22166 321.04962 192.71954 318.83203 196.50282 317.33627C 203.55399 314.5485 207.43956 315.21918 210.63618 319.10614C 214.2025 323.44257 214.12509 328.54822 210.19969 335.1233z" stroke="none" fill="#D2AA30" fill-rule="nonzero" />
    <path d="M111.06383 363.03555C 99.498924 359.97253 94.29381 351.1166 97.22463 338.52493C 101.783165 318.94016 109.32958 300.56052 121.23479 284.17325C 122.402214 282.5663 123.589905 280.645 125.24314 279.81018C 126.99123 278.92746 129.30762 279.1702 131.37576 278.92136C 131.53407 281.17206 132.56767 283.8491 131.71202 285.60596C 124.95097 299.4881 117.528046 313.05353 110.980095 327.03085C 108.63495 332.03674 107.64517 337.84256 106.91237 343.39877C 105.9056 351.0322 109.9232 354.68152 117.62964 353.49838C 122.712875 352.71802 127.66572 351.1073 132.74086 350.24426C 134.38216 349.96515 136.22653 350.8802 137.978 351.24902C 137.20633 352.90488 136.82457 354.96408 135.59822 356.14957C 128.8338 362.68866 120.418945 363.9257 111.06383 363.03555z" stroke="none" fill="#D2A92F" fill-rule="nonzero" />
    <path d="M407.32922 315.46912C 405.74496 315.63687 404.5899 315.8028 403.4289 315.88156C 394.2529 316.50427 392.60794 317.65314 389.84964 326.5405C 388.3254 331.45157 387.1805 336.48877 386.04956 341.51077C 385.1923 345.31763 386.9183 347.597 390.80716 346.87567C 394.48752 346.19305 397.98065 344.55078 401.61093 343.52448C 403.14404 343.09103 404.81757 343.15405 406.42725 342.99142C 406.26675 344.98315 406.82346 348.15686 405.8228 348.764C 401.2539 351.53638 396.4588 354.6492 391.35226 355.6645C 382.45026 357.4344 376.22906 351.709 377.11124 342.6283C 377.7744 335.8015 380.13892 329.1315 381.86484 322.42227C 382.30884 320.6963 383.20087 319.08554 383.82938 317.56177C 383.4599 317.0515 383.3051 316.75015 383.07278 316.53107C 381.5806 315.1238 380.07138 313.7346 378.5678 312.33942C 380.55652 311.28223 382.58682 310.29517 384.52188 309.14755C 386.36725 308.05316 388.55536 307.13397 389.80243 305.52515C 391.81906 302.9235 392.99426 299.68256 394.90656 296.9819C 395.99045 295.45114 397.66977 293.90652 399.3872 293.39337C 400.8402 292.95926 403.1871 293.52115 404.27722 294.5525C 405.0355 295.2699 404.78592 297.7298 404.19348 299.05725C 402.94736 301.84952 401.17944 304.40887 399.1558 307.8668C 402.39148 307.8668 404.61813 307.948 406.83646 307.84656C 409.70633 307.7153 411.74118 308.57828 412.17987 311.72855C 412.68167 315.33173 410.15042 315.295 407.32922 315.46912z" stroke="none" fill="#D2A931" fill-rule="nonzero" />
    <path d="M330.9787 328.9466C 327.32242 341.5137 320.7551 351.06363 307.71634 354.27344C 300.94992 355.93918 295.2517 351.15744 294.80475 344.139C 294.0471 332.24152 304.99387 316.69336 316.39423 313.36792C 325.3289 310.76175 333.46915 316.32007 330.9787 328.9466zM306.42673 343.64557C 307.77347 343.8927 309.27997 344.65723 310.43982 344.2991C 316.0346 342.57162 322.6153 331.19748 321.16812 325.57977C 320.93304 324.66724 318.38632 323.41083 317.47098 323.7656C 311.59137 326.04453 305.8511 336.06958 306.42673 343.64557z" stroke="none" fill="#D3AA2D" fill-rule="nonzero" />
    <path d="M370.9032 327.6978C 369.49155 331.50266 368.15726 334.90247 366.90552 338.33237C 365.51526 342.14185 365.58905 345.68375 368.2361 349.14227C 369.83978 351.23758 371.28964 354.25143 367.92786 355.9033C 364.9829 357.35025 361.9728 356.423 360.4532 353.0969C 359.5063 351.02438 358.86163 348.81378 358.00275 346.44882C 355.15195 348.44205 352.72864 350.4418 350.03394 351.9597C 343.5702 355.6004 336.26837 351.82922 335.94962 344.4617C 335.47748 333.54974 340.26935 324.13144 345.53693 315.03146C 346.0705 314.10968 349.04346 313.73828 350.29944 314.3375C 351.56775 314.9426 352.8961 317.13043 352.79623 318.52444C 352.61185 321.0977 351.49026 323.62878 350.60083 326.1209C 349.0947 330.34082 347.24966 334.4545 346.0098 338.7465C 345.59833 340.17087 346.6091 342.0061 346.96964 343.6535C 348.6037 343.16583 351.0494 343.18994 351.73428 342.10376C 355.062 336.826 358.0031 331.29495 360.88254 325.75046C 361.62012 324.3302 361.1886 322.2104 362.08005 320.98257C 363.67297 318.78867 365.84918 315.44696 367.80746 315.42908C 371.4616 315.39572 372.5243 318.98758 372.11865 322.46606C 371.92813 324.1 371.3949 325.694 370.9032 327.6978z" stroke="none" fill="#D2A930" fill-rule="nonzero" />
    <path d="M290.16077 299.05646C 291.72775 294.61212 293.40515 290.59827 294.51205 286.4328C 295.30017 283.4669 296.84604 280.68652 299.66187 282.01797C 301.93597 283.09326 304.16882 286.42807 304.4389 288.97092C 304.72043 291.62164 302.61194 294.518 301.57822 297.31802C 296.06284 312.25742 290.4518 327.163 285.12753 342.1703C 283.92102 345.57098 283.95364 349.39566 282.94867 352.89084C 282.52017 354.3811 281.09695 356.1753 279.73816 356.60464C 278.80316 356.90005 276.28287 355.27002 276.0642 354.1808C 275.30368 350.39215 274.09918 346.1319 275.1152 342.64963C 278.54388 330.89838 282.83658 319.3982 286.84174 307.81686C 287.81952 304.98956 288.96097 302.2188 290.16077 299.05646z" stroke="none" fill="#D2A930" fill-rule="nonzero" />
    <path d="M151.19766 328.1449C 151.72466 326.5064 152.00362 325.18918 152.53313 323.9819C 153.4347 321.92636 153.36032 317.84702 156.84969 319.5937C 159.16327 320.75183 162.14696 324.57043 161.71977 326.51443C 159.84055 335.06604 156.97769 343.42047 154.08911 351.71326C 153.58829 353.15103 150.91084 355.0885 149.8293 354.7727C 148.18683 354.29315 145.93826 352.04794 145.93246 350.5451C 145.91675 346.49 146.7021 342.3723 147.64267 338.39124C 148.43954 335.0183 149.89714 331.8015 151.19766 328.1449z" stroke="none" fill="#D2A930" fill-rule="nonzero" />
    <path d="M200.45117 398.8252C 195.2443 397.35013 194.32121 400.51443 194.14127 404.15488C 193.96222 407.7769 194.10204 411.41464 194.10204 415.0455C 193.36656 415.10178 192.6311 415.15805 191.89563 415.21432C 191.61336 413.9905 191.15376 412.7764 191.08612 411.54083C 190.94992 409.05243 191.05737 406.55176 191.00829 404.05722C 190.95378 401.2886 190.76 398.3452 187.08069 398.29257C 183.4788 398.24106 182.97246 401.02814 182.92355 403.878C 182.87788 406.53897 182.96968 409.20517 182.83228 411.86035C 182.77383 412.98962 182.28574 414.0967 181.99289 415.21387C 181.52821 415.1661 181.06354 415.11835 180.59886 415.0706C 180.59886 408.8746 180.59886 402.67862 180.59886 395.59854C 184.64154 396.16254 188.5741 396.81604 192.53305 397.191C 193.54652 397.28705 194.63618 396.4809 195.70314 396.12622C 200.85316 394.41428 204.8336 396.79663 205.24562 402.20792C 205.5649 406.40134 205.3094 410.63846 205.3094 414.85617C 204.73404 414.93256 204.15866 415.0089 203.5833 415.0853C 203.26651 413.594 202.89572 412.11176 202.6435 410.60962C 201.99756 406.7624 201.40436 402.9063 200.45117 398.8252z" stroke="none" fill="#C2A65B" fill-rule="nonzero" />
    <path d="M356.0495 395.63873C 363.10205 396.21268 365.76862 399.75168 365.18582 407.17215C 364.65695 413.906 361.41385 416.1603 352.85553 415.59875C 352.2757 417.81335 351.6864 420.06403 351.0971 422.3147C 350.61057 422.2281 350.124 422.14148 349.63745 422.05487C 349.63745 413.5236 349.63745 404.99228 349.63745 396.52164C 351.80792 396.22574 353.7294 395.96378 356.0495 395.63873zM361.97714 403.0396C 361.2547 399.93643 359.58936 397.79974 356.1229 398.25516C 352.48148 398.73355 351.87152 401.4337 352.0884 404.54852C 352.14606 405.37564 352.14987 406.21378 352.09058 407.04056C 351.85397 410.3394 353.05066 412.70782 356.56607 412.9815C 360.43262 413.28253 361.76 410.69086 362.0662 407.3493C 362.17166 406.1986 362.0774 405.02957 361.97714 403.0396z" stroke="none" fill="#BBA15C" fill-rule="nonzero" />
    <path d="M279.88586 404.92413C 279.88586 408.5015 279.88586 411.59473 279.88586 414.6032C 266.9469 415.92313 263.9763 414.2662 263.75897 406.08347C 263.54663 398.088 266.8562 395.30954 276.37283 395.77817C 276.7669 393.44867 277.17047 391.06323 277.57404 388.67776C 278.3161 388.70447 279.0582 388.73117 279.80026 388.75787C 279.8288 393.98526 279.85736 399.21265 279.88586 404.92413zM275.99597 411.23117C 276.2782 408.1488 276.90137 405.0493 276.74783 401.9888C 276.59076 398.85858 272.83163 397.1886 269.94238 398.58658C 266.987 400.01663 265.74304 405.86603 267.67133 409.84018C 269.43274 413.47046 272.11798 413.99628 275.99597 411.23117z" stroke="none" fill="#BCA058" fill-rule="nonzero" />
    <path d="M235.5786 401.7063C 235.6329 406.24 235.6329 410.347 235.6329 414.3282C 233.01671 414.87106 230.96178 415.3109 228.90118 415.72232C 224.696 416.5619 221.27997 414.40823 220.71028 410.57388C 220.06345 406.22034 222.51494 403.16138 227.02536 402.81955C 228.64319 402.69693 230.2781 402.79987 232.37273 402.79987C 231.54913 395.23343 225.89458 399.7463 222.64171 398.9015C 222.58913 398.2981 222.53653 397.6947 222.48395 397.0913C 225.05865 396.60605 227.92352 395.20178 230.1255 395.89703C 232.2771 396.57642 233.75221 399.3983 235.5786 401.7063zM230.55542 412.3526C 233.33226 410.258 234.41145 407.79443 230.62665 406.04355C 229.04887 405.31366 226.45547 405.87573 224.74945 406.7152C 223.92131 407.12274 223.46718 410.59628 223.88705 410.83328C 225.66434 411.83636 227.83342 412.14526 230.55542 412.3526z" stroke="none" fill="#B79F5B" fill-rule="nonzero" />
    <path d="M255.51001 397.61743C 258.3471 403.5433 257.07672 409.18613 256.9588 414.8236C 256.28476 414.85742 255.61072 414.8912 254.93668 414.925C 254.78824 412.31418 254.65198 409.70264 254.4874 407.09286C 254.3626 405.1139 254.68076 402.9167 253.90436 401.2296C 253.28992 399.89444 250.9896 398.13507 250.01219 398.4351C 248.35237 398.94455 246.21254 400.758 245.92816 402.3238C 245.18332 406.42496 245.33142 410.68832 245.0956 415.45303C 242.37091 412.72516 241.80821 405.05286 243.3247 395.60693C 247.27315 396.17203 251.27164 396.7443 255.51001 397.61743z" stroke="none" fill="#C2A65B" fill-rule="nonzero" />
    <path d="M396.97055 403.4077C 399.1895 396.66782 402.35638 394.48898 407.4727 395.79355C 411.54254 396.83127 413.36606 400.511 412.53693 406.67984C 408.75406 406.85458 404.86725 407.03415 400.71225 407.22607C 401.09024 414.72314 406.61044 412.2571 410.58755 412.5807C 407.58252 416.98483 402.1176 417.16455 399.28796 412.68375C 397.7306 410.21765 397.66867 406.8072 396.97055 403.4077zM409.80756 401.96332C 407.94757 400.7323 406.07117 398.53577 404.23276 398.56708C 402.68237 398.59348 401.1761 401.20648 399.6503 402.6746C 400.0378 403.3155 400.42532 403.9564 400.81284 404.5973C 403.81195 403.98938 406.81107 403.38144 409.80756 401.96332z" stroke="none" fill="#B99F5B" fill-rule="nonzero" />
    <path d="M142.69583 398.9527C 145.75674 395.13846 149.4768 394.61795 153.18874 396.48163C 157.26852 398.53 157.98459 402.6457 157.66756 406.77585C 157.3431 411.00284 155.68565 414.5109 151.09387 415.70703C 146.97496 416.78 142.43394 414.4177 141.67245 409.8453C 141.10886 406.46115 142.15324 402.80917 142.69583 398.9527zM147.8706 398.27487C 144.05917 401.07935 142.73123 406.5597 144.92194 410.44382C 146.56337 413.3541 150.81163 414.4282 152.31088 411.79254C 153.79199 409.18878 154.47498 405.56445 154.00246 402.6303C 153.72299 400.89474 150.52531 399.62906 147.8706 398.27487z" stroke="none" fill="#BCA15A" fill-rule="nonzero" />
    <path d="M166.16728 294.77502C 169.59369 296.58478 171.07675 299.45938 169.51881 302.36142C 168.07857 305.04422 165.50392 307.41644 162.87395 309.00897C 161.88168 309.60977 157.70746 307.49197 157.76436 306.86642C 158.07272 303.4768 158.80101 299.9362 160.335 296.933C 161.0255 295.5812 163.92284 295.35663 166.16728 294.77502z" stroke="none" fill="#D0A934" fill-rule="nonzero" />
    <path d="M331.314 414.3119C 330.72037 413.42474 330.40576 412.7308 330.09113 412.0369C 330.77637 411.88034 331.5245 411.4695 332.13367 411.62027C 333.38962 411.93106 334.60614 412.99524 335.77414 412.90564C 337.0258 412.80957 338.56 411.9938 339.26016 410.9943C 339.60303 410.50476 338.58786 408.59818 337.73367 407.85306C 336.65295 406.9104 334.79803 406.7962 333.8356 405.79025C 332.1535 404.0322 330.3885 402.02017 329.71643 399.79495C 329.45175 398.91873 331.79825 396.51456 333.3562 395.9855C 336.33447 394.97412 339.42358 395.29303 342.33655 399.64032C 339.42084 398.95453 337.8113 398.24008 336.23767 398.31186C 334.9728 398.3696 333.75137 399.37936 332.51068 399.9667C 333.16898 400.99063 333.62866 402.27063 334.53555 402.97406C 335.68295 403.86398 337.20923 404.2544 338.5456 404.91394C 341.5748 406.40884 343.33984 408.78732 342.12473 412.14343C 340.83286 415.7116 337.68344 416.26242 334.31873 415.6733C 333.371 415.5074 332.49948 414.90646 331.314 414.3119z" stroke="none" fill="#BBA15C" fill-rule="nonzero" />
    <path d="M131.80734 414.9118C 131.01662 411.4214 130.67186 407.94455 130.09047 404.50775C 129.66223 401.9761 128.92479 399.4968 128.21298 396.52628C 131.70268 395.76285 129.1395 385.07748 137.9644 389.4518C 136.24086 390.97556 134.82129 392.23053 133.40172 393.48553C 134.75505 394.6743 136.10838 395.86304 137.88545 397.42398C 131.94714 398.62323 133.36978 403.29248 133.15662 407.36884C 133.02403 409.904 132.5001 412.41864 131.80734 414.9118z" stroke="none" fill="#B79F5D" fill-rule="nonzero" />
    <path d="M322.22412 400.15747C 323.23422 405.46875 323.33795 410.3242 322.494 415.1121C 321.80292 415.12405 321.11182 415.13602 320.42075 415.14798C 320.24512 413.02438 320.0171 410.9035 319.90848 408.77652C 319.7981 406.61594 320.3437 404.2372 319.59955 402.34915C 318.94543 400.68948 316.67874 398.31512 315.5306 398.52112C 313.86328 398.8203 311.77255 400.9358 311.28775 402.67422C 310.55292 405.30905 311.10382 408.288 310.9861 411.11566C 310.9301 412.461 310.5918 413.79462 309.44736 415.10062C 307.32343 408.99115 308.17215 402.77438 308.07474 396.20355C 313.0812 397.1654 319.02054 392.3009 322.22412 400.15747z" stroke="none" fill="#B79F60" fill-rule="nonzero" />
    <path d="M384.19974 396.08835C 387.2679 396.05515 389.97464 396.05515 392.68137 396.05515C 393.04208 396.55878 393.4028 397.06238 393.76352 397.566C 381.15436 398.8442 387.4521 409.1164 384.58325 414.94327C 383.87216 414.78244 383.28085 414.7043 383.28244 414.6412C 383.4387 408.46725 383.6399 402.29443 384.19974 396.08835z" stroke="none" fill="#AF9859" fill-rule="nonzero" />
    <path d="M297.30182 414.65942C 297.1093 406.29736 297.0965 398.18588 297.1498 390.0748C 297.1519 389.75812 297.7873 389.44562 298.07294 389.18164C 298.533 389.28992 299.12482 389.35678 299.12714 389.43997C 299.35046 397.5113 299.56204 405.58368 299.61484 413.65698C 299.61752 414.07004 298.23212 414.49213 297.30182 414.65942z" stroke="none" fill="#B79F5D" fill-rule="nonzero" />
    <path d="M95.81327 399.13165C 95.81339 395.5475 95.81339 392.4383 95.81339 389.32907C 96.65283 388.6856 97.49228 388.04214 98.33172 387.39868C 98.50244 388.5128 98.63681 389.6339 98.849915 390.73984C 100.030174 396.86456 98.80188 413.27563 95.81315 416.1789C 95.81315 409.9125 95.81315 404.75958 95.81327 399.13165z" stroke="none" fill="#BCA15A" fill-rule="nonzero" />
    <path d="M172.92195 398.39758C 168.57422 398.67496 167.14871 401.13928 167.13068 404.78748C 167.11441 408.07504 167.12724 411.36276 167.12724 414.87476C 163.78336 413.54062 163.01193 406.404 164.62402 396.5877C 166.92372 396.26584 169.29222 395.7634 171.67838 395.65714C 173.43362 395.579 175.4686 395.87167 172.92195 398.39758z" stroke="none" fill="#B79F5B" fill-rule="nonzero" />
    <path d="M111.036026 397.05426C 116.63574 394.10663 120.76629 395.63327 121.57455 401.5307C 122.17951 405.94476 121.69394 410.50833 121.69394 415.0053C 120.834366 415.04105 119.9748 415.0768 119.11523 415.11255C 119.053665 411.36438 119.065796 407.6132 118.91237 403.86877C 118.70845 398.89197 117.0658 397.7726 111.48563 398.64902C 111.069954 397.95752 111.05299 397.5059 111.036026 397.05426z" stroke="none" fill="#BBA15C" fill-rule="nonzero" />
    <path d="M371.84406 411.1853C 371.84076 405.918 371.84076 401.06363 371.84076 395.19485C 375.30194 398.5843 375.71362 410.49393 372.93307 416.18713C 372.40155 413.94058 372.12445 412.7694 371.84406 411.1853z" stroke="none" fill="#BCA058" fill-rule="nonzero" />
    <path d="M110.59263 397.02948C 111.05299 397.5059 111.069954 397.95752 111.13724 398.7428C 110.77794 402.6413 110.38364 406.20798 109.952194 409.77014C 109.73804 411.53833 109.45568 413.2983 109.204185 415.06198C 108.51766 415.04193 107.83115 415.02188 107.14462 415.0018C 107.14462 409.2968 107.09541 403.59033 107.27292 397.89087C 107.28304 397.56592 109.1477 397.29874 110.59263 397.02948z" stroke="none" fill="#CBA843" fill-rule="nonzero" />
    <path d="M234.0003 196.94046C 228.176 196.93819 222.84937 196.84293 217.52806 196.97002C 214.54405 197.0413 213.33725 195.84161 213.34662 192.8673C 213.40015 175.89595 213.38841 158.9243 213.34787 141.95287C 213.3414 139.24419 214.42929 137.89879 217.21371 138.08255C 218.04169 138.13722 218.89368 137.97122 219.70624 138.09416C 227.9808 139.34633 234.60152 137.53557 238.52333 129.18282C 239.23058 127.67649 242.28044 126.6068 244.3074 126.50515C 250.94623 126.17226 257.63483 126.064804 264.25565 126.54363C 266.6632 126.717766 270.12076 128.19868 271.05573 130.09233C 274.5733 137.21667 280.01996 138.66301 287.333 138.21153C 296.5702 137.6413 295.58133 137.61281 295.59583 146.48158C 295.61996 161.29007 295.43488 176.10185 295.70963 190.90535C 295.80023 195.78714 294.13416 197.10632 289.40707 197.04396C 271.1075 196.8026 252.80293 196.94255 234.0003 196.94046zM240.50029 190.8029C 254.98717 190.80081 269.47552 190.68452 283.96 190.86989C 288.02518 190.92192 289.55807 189.67912 289.4739 185.48724C 289.25674 174.66821 289.4023 163.84169 289.42105 153.01817C 289.43854 142.93347 289.78735 144.3572 280.45123 144.20955C 277.02686 144.15538 273.1906 145.06088 271.35144 140.88223C 268.09525 133.48404 262.2954 131.4615 254.76132 132.59647C 252.64368 132.91548 250.42531 132.81612 248.27757 132.6286C 244.74922 132.32059 242.0496 133.3847 240.52145 136.70721C 237.64 142.9721 232.79463 145.37782 226.0579 144.23459C 225.24979 144.09743 224.39365 144.27315 223.56413 144.22647C 220.88425 144.07568 219.56412 145.20192 219.57474 148.00136C 219.62402 160.98921 219.63516 173.97743 219.58939 186.96527C 219.5796 189.74103 220.7979 190.83578 223.5157 190.79744C 228.84293 190.72229 234.1722 190.79266 240.50029 190.8029z" stroke="none" fill="#41517E" fill-rule="nonzero" />
    <path d="M306.27728 343.277C 305.8511 336.06958 311.59137 326.04453 317.47098 323.7656C 318.38632 323.41083 320.93304 324.66724 321.16812 325.57977C 322.6153 331.19748 316.0346 342.57162 310.43982 344.2991C 309.27997 344.65723 307.77347 343.8927 306.27728 343.277z" stroke="none" fill="#334A81" fill-rule="nonzero" />
    <path d="M362.02576 403.45428C 362.0774 405.02957 362.17166 406.1986 362.0662 407.3493C 361.76 410.69086 360.43262 413.28253 356.56607 412.9815C 353.05066 412.70782 351.85397 410.3394 352.09058 407.04056C 352.14987 406.21378 352.14606 405.37564 352.0884 404.54852C 351.87152 401.4337 352.48148 398.73355 356.1229 398.25516C 359.58936 397.79974 361.2547 399.93643 362.02576 403.45428z" stroke="none" fill="#304982" fill-rule="nonzero" />
    <path d="M275.7132 411.53058C 272.11798 413.99628 269.43274 413.47046 267.67133 409.84018C 265.74304 405.86603 266.987 400.01663 269.94238 398.58658C 272.83163 397.1886 276.59076 398.85858 276.74783 401.9888C 276.90137 405.0493 276.2782 408.1488 275.7132 411.53058z" stroke="none" fill="#304982" fill-rule="nonzero" />
    <path d="M230.20734 412.53027C 227.83342 412.14526 225.66434 411.83636 223.88705 410.83328C 223.46718 410.59628 223.92131 407.12274 224.74945 406.7152C 226.45547 405.87573 229.04887 405.31366 230.62665 406.04355C 234.41145 407.79443 233.33226 410.258 230.20734 412.53027z" stroke="none" fill="#374A7A" fill-rule="nonzero" />
    <path d="M409.80887 402.3684C 406.81107 403.38144 403.81195 403.98938 400.81284 404.5973C 400.42532 403.9564 400.0378 403.3155 399.6503 402.6746C 401.1761 401.20648 402.68237 398.59348 404.23276 398.56708C 406.07117 398.53577 407.94757 400.7323 409.80887 402.3684z" stroke="none" fill="#374A7A" fill-rule="nonzero" />
    <path d="M148.25525 398.2135C 150.52531 399.62906 153.72299 400.89474 154.00246 402.6303C 154.47498 405.56445 153.79199 409.18878 152.31088 411.79254C 150.81163 414.4282 146.56337 413.3541 144.92194 410.44382C 142.73123 406.5597 144.05917 401.07935 148.25525 398.2135z" stroke="none" fill="#334A81" fill-rule="nonzero" />
    <path d="M240.00046 190.80286C 234.1722 190.79266 228.84293 190.72229 223.5157 190.79744C 220.7979 190.83578 219.5796 189.74103 219.58939 186.96527C 219.63516 173.97743 219.62402 160.98921 219.57474 148.00136C 219.56412 145.20192 220.88425 144.07568 223.56413 144.22647C 224.39365 144.27315 225.24979 144.09743 226.0579 144.23459C 232.79463 145.37782 237.64 142.9721 240.52145 136.70721C 242.0496 133.3847 244.74922 132.32059 248.27757 132.6286C 250.42531 132.81612 252.64368 132.91548 254.76132 132.59647C 262.2954 131.4615 268.09525 133.48404 271.35144 140.88223C 273.1906 145.06088 277.02686 144.15538 280.45123 144.20955C 289.78735 144.3572 289.43854 142.93347 289.42105 153.01817C 289.4023 163.84169 289.25674 174.66821 289.4739 185.48724C 289.55807 189.67912 288.02518 190.92192 283.96 190.86989C 269.47552 190.68452 254.98717 190.80081 240.00046 190.80286zM266.26566 165.50436C 266.26566 161.84796 266.1362 158.18562 266.30328 154.53688C 266.4606 151.10085 265.0474 149.82138 261.62338 149.86172C 250.9881 149.98708 240.34976 149.9681 229.71399 149.86377C 226.6286 149.8335 225.14018 150.77705 225.18463 154.11491C 225.3041 163.08798 225.27092 172.06462 225.16406 181.03827C 225.12843 184.03053 226.32248 185.16422 229.29585 185.14024C 240.26431 185.0518 251.23442 185.05356 262.20282 185.14886C 265.24487 185.17526 266.33984 183.87122 266.28006 180.96085C 266.1811 176.14317 266.2606 171.32184 266.26566 165.50436zM272.6179 162.24019C 272.88287 163.95125 272.9072 167.04654 273.45322 167.14148C 276.30908 167.63805 279.31918 167.56111 282.22208 167.22331C 282.8415 167.15125 283.74243 165.093 283.58987 164.09033C 283.45065 163.17534 282.11993 161.8494 281.20767 161.75694C 278.6159 161.49423 275.96967 161.7694 272.6179 162.24019zM271.97562 153.40208C 273.60992 155.76901 281.11017 157.30904 282.7235 155.29184C 283.51086 154.30743 283.66632 151.9621 283.02493 150.867C 281.6505 148.52039 273.7138 149.87808 271.97562 153.40208z" stroke="none" fill="#D0A830" fill-rule="nonzero" />
    <path d="M266.26526 166.0032C 266.2606 171.32184 266.1811 176.14317 266.28006 180.96085C 266.33984 183.87122 265.24487 185.17526 262.20282 185.14886C 251.23442 185.05356 240.26431 185.0518 229.29585 185.14024C 226.32248 185.16422 225.12843 184.03053 225.16406 181.03827C 225.27092 172.06462 225.3041 163.08798 225.18463 154.11491C 225.14018 150.77705 226.6286 149.8335 229.71399 149.86377C 240.34976 149.9681 250.9881 149.98708 261.62338 149.86172C 265.0474 149.82138 266.4606 151.10085 266.30328 154.53688C 266.1362 158.18562 266.26566 161.84796 266.26526 166.0032zM260.1501 166.52055C 260.13443 164.19649 260.5396 161.75835 259.95166 159.58943C 259.57452 158.19832 257.77573 156.2439 256.5419 156.18971C 249.25153 155.86963 241.93282 155.87103 234.64258 156.1932C 233.4423 156.24626 231.43275 158.35655 231.34338 159.62502C 230.97096 164.911 230.97025 170.25441 231.35197 175.5393C 231.44243 176.79173 233.46222 178.79721 234.73375 178.91182C 239.34523 179.32745 244.01588 179.09137 248.66422 179.09251C 260.11813 179.09532 260.11813 179.09338 260.1501 166.52055z" stroke="none" fill="#3C4E80" fill-rule="nonzero" />
    <path d="M272.98138 162.0365C 275.96967 161.7694 278.6159 161.49423 281.20767 161.75694C 282.11993 161.8494 283.45065 163.17534 283.58987 164.09033C 283.74243 165.093 282.8415 167.15125 282.22208 167.22331C 279.31918 167.56111 276.30908 167.63805 273.45322 167.14148C 272.9072 167.04654 272.88287 163.95125 272.98138 162.0365z" stroke="none" fill="#435279" fill-rule="nonzero" />
    <path d="M271.97464 152.96606C 273.7138 149.87808 281.6505 148.52039 283.02493 150.867C 283.66632 151.9621 283.51086 154.30743 282.7235 155.29184C 281.11017 157.30904 273.60992 155.76901 271.97464 152.96606z" stroke="none" fill="#435279" fill-rule="nonzero" />
    <path d="M260.1497 167.01129C 260.11813 179.09338 260.11813 179.09532 248.66422 179.09251C 244.01588 179.09137 239.34523 179.32745 234.73375 178.91182C 233.46222 178.79721 231.44243 176.79173 231.35197 175.5393C 230.97025 170.25441 230.97096 164.911 231.34338 159.62502C 231.43275 158.35655 233.4423 156.24626 234.64258 156.1932C 241.93282 155.87103 249.25153 155.86963 256.5419 156.18971C 257.77573 156.2439 259.57452 158.19832 259.95166 159.58943C 260.5396 161.75835 260.13443 164.19649 260.1497 167.01129z" stroke="none" fill="#D5AA2A" fill-rule="nonzero" />
</g>
</svg>