<?xml version="1.0" standalone="no"?>
<!DOCTYPE svg PUBLIC "-//W3C//DTD SVG 1.0//EN" "http://www.w3.org/TR/2001/REC-SVG-20010904/DTD/svg10.dtd">
<svg xmlns="http://www.w3.org/2000/svg" xmlns:xlink="http://www.w3.org/1999/xlink" id="body_1" width="154" height="115">

<g transform="matrix(0.1364039 0 0 0.1364039 -0 11.327281)">
    <path d="M843 678C 562 678 281.50003 678 1.000038 678C 1.000025 452.33337 1.000025 226.66673 1.000013 1.000068C 377.33328 1.000045 753.66656 1.000045 1130 1.000023C 1130 226.66661 1130 452.33322 1130 677.9999C 1034.5 678 939 678 843 678zM808.00415 607.94836C 808.00415 607.94836 808.1815 607.73486 807.7162 607.4228C 807.0016 607.5131 806.28705 607.6034 805.267 607.7407C 805.267 607.7407 805.0232 607.93054 804.4331 608.01776C 804.2535 608.103 804.0739 608.18835 803.5667 608.96924C 803.6589 619.5463 803.75104 630.1235 804.13116 641.2529C 805.4166 641.51263 806.702 641.7723 808.02686 642.0725C 808.02686 642.0725 808.0493 642.0207 808.6216 641.78406C 808.7198 641.1981 808.818 640.6122 809.00433 639.0893C 808.96765 629.0743 808.9309 619.0593 808.91907 608.49524C 808.67554 608.2448 808.43195 607.9943 808.00415 607.94836zM582.7177 401.3293C 582.7177 401.3293 582.7221 401.39905 582.1255 400.90143C 579.13824 401.2821 576.15106 401.66278 572.787 402.3275C 572.787 402.3275 572.37506 402.5576 571.9188 402.63022C 571.6156 402.73334 571.3702 402.91467 570.86755 403.52264C 570.6452 403.74606 570.39703 403.9356 569.7002 404.35675C 569.5331 404.64056 569.366 404.92438 569.1656 405.1378C 569.1656 405.1378 569.23645 405.17023 568.67554 405.58014C 567.78455 408.05167 566.8936 410.5232 566.00244 413.00122C 566.00244 413.00122 565.9987 413.00357 565.63635 413.3161C 565.4239 413.57095 565.30865 413.86404 565.2874 414.21973C 565.2874 414.21973 565.2852 414.2442 564.72595 414.61618C 562.22485 420.47757 559.72375 426.33896 557.0265 432.8844C 547.0467 460.19257 536.88696 487.4373 527.21674 514.8546C 524.8714 521.50446 523.7984 528.6745 522.7945 535.6989C 522.199 539.8659 527.435 545.3429 531.6619 545.7972C 536.37256 546.30347 536.90533 542.21375 537.8842 539.28735C 542.4256 525.7113 546.6659 512.0348 551.08514 498.41733C 552.58014 493.81058 554.28424 489.2717 556.1023 484.1066C 557.08276 485.35712 557.4881 485.69757 557.6632 486.13098C 558.1613 487.36417 558.666 488.60986 558.9912 489.8954C 562.2213 502.66016 567.7073 514.4231 575.77856 524.76025C 583.0035 534.0134 591.2663 542.2611 603.3681 545.07874C 607.8242 546.1162 611.2512 544.99866 613.10187 540.4742C 615.36835 534.9333 614.764 531.5917 610.2971 528.75525C 606.815 526.5441 602.5556 525.41205 599.39417 522.8659C 584.4138 510.80136 576.81384 494.38242 573.16 475.9573C 572.7951 474.11734 574.30994 471.18353 575.8786 469.8339C 578.9852 467.16107 582.9481 465.50595 586.1851 462.95773C 594.48883 456.42093 602.34985 449.3031 610.831 443.01532C 621.3689 435.20267 632.3721 428.0192 643.13293 420.50485C 647.18317 417.6766 647.196 414.00357 643.5083 408.2651C 641.2504 404.7516 638.82 401.78452 634.35266 405.1089C 614.6223 419.79126 594.9308 434.52573 574.554 449.02786C 573.96436 447.80392 573.01495 446.61862 572.8782 445.34598C 572.7151 443.82877 573.2485 442.23663 573.65936 440.2561C 573.65936 440.2561 573.8961 439.86475 574.4473 439.5176C 576.1185 435.52145 577.7897 431.5253 579.63165 427.1893C 579.63165 427.1893 579.8648 426.8888 580.4161 426.524C 581.21625 424.63345 582.0164 422.74295 582.9311 420.93442C 582.9311 420.93442 582.80206 420.8783 583.3379 420.45944C 588.788 413.0438 588.96387 408.3516 583.71295 402.78354C 583.71295 402.78354 583.4911 402.43915 583.34265 401.9843C 583.18335 401.69086 582.95184 401.47467 582.7177 401.3293zM578.343 613.3286C 578.7541 612.8808 579.1651 612.4329 580.0367 612.1945C 581.9886 611.7914 583.9405 611.38824 586.4736 611.1246C 586.86945 611.16406 587.2653 611.2036 588.0657 611.66077C 589.0501 612.22253 590.03455 612.78436 591.2734 613.76843C 591.2734 613.76843 591.6299 614.1088 591.7717 614.8363C 592.15607 617.2574 592.7684 619.66815 592.87885 622.1017C 593.13275 627.6958 593.1424 633.3011 593.1795 639.5657C 593.22015 640.00793 593.2608 640.4502 593.37555 641.5159C 594.7794 641.81213 596.1832 642.10834 598.0945 641.87573C 598.06744 633.63965 598.04047 625.4035 597.6596 616.87994C 597.6596 616.87994 597.2679 616.6467 597.21387 615.91644C 594.5049 607.2772 587.93054 604.52405 579.5146 608.24927C 578.27655 608.7972 576.4978 608.12354 574.50964 607.9019C 573.7773 608.26117 573.0449 608.6205 572.0913 609.0976C 572.0913 609.0976 571.9732 609.3187 571.68243 610.0194C 571.63184 619.6622 571.51086 629.3057 571.6248 638.94653C 571.6382 640.0775 572.9457 641.1933 573.65326 642.3161C 574.579 641.53876 575.50464 640.7615 576.5635 639.0587C 576.5306 633.6197 576.4976 628.1806 576.58826 622.5141C 576.58826 622.5141 576.4667 622.28546 576.6182 621.4454C 576.68024 620.59485 576.74225 619.7444 577.03577 618.34924C 577.05853 617.1217 577.0813 615.8942 578.343 613.3286zM328.24255 641.84467C 329.73312 641.5277 331.2237 641.21075 332.8321 640.2389C 332.81412 639.79675 332.79614 639.35455 332.96173 638.01324C 332.90817 633.0525 332.8546 628.09174 332.8954 622.29724C 333.36142 614.33527 335.8545 611.03394 341.33 611.128C 346.72974 611.22076 349.17282 614.6958 349.28735 622.61505C 349.3668 628.1078 349.24277 633.606 349.456 639.09216C 349.49472 640.0889 350.72354 641.0394 351.40298 642.0113C 352.35117 641.09515 354.12518 640.1725 354.1181 639.26385C 354.05594 631.29706 354.18695 623.2704 353.22452 615.388C 352.4882 609.35724 348.37387 606.57104 342.21832 606.8784C 339.0536 607.0365 335.93814 608.18207 332.64572 608.2458C 331.02292 608.28894 329.4001 608.3321 327.43 609.0479C 327.53616 619.8231 327.64233 630.5984 328.24255 641.84467zM723.91473 80.57443C 676.30774 25.886164 617.1184 5.875428 546.9284 24.64592C 454.5799 49.342125 402.27435 150.45874 433.81027 240.48979C 469.67908 342.89072 589.25867 385.90292 681.2708 328.86694C 729.359 299.0583 755.8071 254.82372 760.5458 198.62608C 764.2238 155.0064 751.50494 115.64944 723.91473 80.57443zM481.87125 508.3995C 474.1604 514.1773 466.79526 520.48956 456.45346 521.28516C 453.78107 521.4907 452.06302 523.2981 454.1095 526.6306C 457.43176 532.0406 460.97983 534.245 467.39755 533.0145C 487.13882 529.22955 501.06537 517.05725 511.70187 500.83383C 514.8904 495.97046 517.53064 490.23822 518.55475 484.56683C 521.0147 470.9437 509.3895 460.61987 495.9534 463.74872C 487.06573 465.81836 478.91873 469.37952 472.1097 475.66943C 470.72186 476.95145 468.97916 477.84937 466.37274 479.62372C 466.57095 477.4541 466.42294 476.38614 466.7826 475.53183C 475.08325 455.81567 483.3285 436.0748 491.8361 416.44778C 495.53604 407.91193 493.7849 403.4986 484.589 401.12653C 483.12646 400.74933 480.46735 401.6188 479.63962 402.80432C 477.08627 406.46143 474.7027 410.37143 473.0544 414.50284C 465.8536 432.55203 458.54984 450.57733 452.0596 468.88644C 448.13303 479.96344 445.48474 491.5075 442.555 502.91693C 441.43338 507.28482 445.313 514.6139 449.48425 515.99615C 454.06796 517.515 456.25388 513.6634 458.66483 510.7685C 461.00906 507.95374 463.2886 505.0853 465.6177 502.2578C 473.02475 493.26587 482.00262 486.14185 492.30652 480.8449C 494.57074 479.68097 498.60626 479.18002 500.3661 480.42975C 503.48764 482.64642 501.83484 486.445 499.77106 488.85394C 494.17877 495.3817 488.22556 501.60028 481.87125 508.3995zM320.99014 542.54956C 325.38553 544.4149 329.62778 547.2529 334.20343 547.9734C 351.88358 550.7574 367.97473 547.15625 381.2551 534.28687C 383.3982 532.21014 385.31158 530.2019 383.74423 526.95166C 382.0491 523.4364 379.22943 523.7592 376.07504 524.5333C 367.02972 526.753 358.03113 529.32684 348.86234 530.844C 331.7002 533.68396 324.0058 526.0217 327.81604 509.18127C 330.66208 496.60245 334.50647 484.13116 339.18884 472.1116C 348.0241 449.43167 358.93835 427.73505 373.3929 407.98486C 376.39578 403.88184 373.98422 400.24887 371.6761 397.07758C 369.2674 393.7682 365.6534 394.02643 362.85236 396.4341C 359.3502 399.44446 355.8966 402.73172 353.2577 406.4867C 343.4008 420.51227 334.31345 434.8824 328.1405 451.1498C 321.56775 468.4709 313.5337 485.21707 310.0336 503.60263C 307.25888 518.17786 308.77145 531.4694 320.99014 542.54956zM815.3312 493.87595C 814.5515 501.13126 813.207 508.3804 813.1275 515.6434C 813.0141 525.9942 823.4128 536.1051 833.4738 535.63464C 838.8998 535.381 844.4728 534.5105 849.6115 532.80786C 856.37445 530.5671 863.08655 527.60455 866.8078 520.8221C 868.6536 517.45776 868.525 514.02716 865.69476 511.1472C 862.81946 508.22134 860.7769 511.38245 858.7689 512.5369C 851.2764 516.84454 843.6494 520.1737 834.67316 519.0895C 830.2676 518.5574 828.27747 516.3274 829.08606 512.0815C 831.95135 497.03638 834.8438 481.9913 843.11865 468.6701C 845.0511 465.5591 847.50305 464.0292 851.2394 463.89395C 857.8878 463.65332 864.5462 463.2208 871.1473 462.4266C 873.13513 462.18744 875.93744 460.93588 876.6513 459.36743C 878.6887 454.89066 874.75287 449.14786 869.81384 448.97003C 866.67896 448.85718 863.5239 449.45215 860.372 449.61377C 858.2173 449.72427 856.0523 449.63498 852.83673 449.63498C 854.31866 446.76877 855.0514 445.1297 855.97614 443.60724C 858.22186 439.90973 861.00104 436.4569 862.6859 432.52838C 863.66394 430.24805 863.97284 426.46127 862.6996 424.77158C 861.3795 423.0198 857.57355 421.964 855.2386 422.44943C 852.2543 423.06992 849.0475 425.01315 847.0354 427.33755C 844.2508 430.5545 842.2387 434.53464 840.3434 438.40704C 836.5079 446.2439 832.75 453.91043 821.76306 451.4473C 821.6083 451.4126 821.35156 451.4038 821.279 451.49344C 819.42816 453.78046 817.086 455.88232 816.0596 458.499C 815.73694 459.3215 818.7807 461.79456 820.60956 463.02966C 822.16156 464.07785 824.183 464.43112 825.935 465.06943C 822.3749 474.75452 818.9993 483.93747 815.3312 493.87595zM723.8504 504.3768C 729.4525 494.97086 732.4277 484.91986 731.1165 473.88657C 730.52264 468.88983 728.2667 464.92493 724.0929 461.77927C 714.6305 454.64783 705.2631 457.28116 696.5712 462.464C 679.7176 472.51352 669.28375 487.41882 665.68933 506.88486C 663.20825 520.32166 672.6315 538.05316 691.1059 532.22845C 705.73914 527.61487 715.9887 518.0123 723.8504 504.3768zM759.14276 459.34543C 758.2749 460.06052 757.0854 460.6007 756.5872 461.5168C 748.2909 476.77325 740.9397 492.3051 739.1956 510.00748C 738.3192 518.9029 742.475 524.8245 748.8948 529.4434C 754.7717 533.6717 760.7624 531.0546 766.11755 527.6376C 770.51074 524.8344 774.5928 521.5436 779.3475 518.0792C 780.1532 520.65936 780.75275 522.84576 781.5218 524.97064C 782.36926 527.3121 783.17126 529.7062 784.3514 531.88306C 786.58966 536.01184 793.97034 537.86993 797.9866 535.50854C 800.8602 533.8189 801.00903 527.80725 798.2642 523.767C 797.9853 523.3564 797.6405 522.987 797.3019 522.62103C 793.8523 518.8928 792.72015 514.3672 793.95557 509.63785C 795.58594 503.39633 797.97003 497.35593 799.80383 491.1621C 801.6796 484.82635 804.06305 478.4962 804.7822 472.00385C 805.4877 465.6354 797.8725 459.53683 793.65826 462.55072C 790.44604 464.84802 787.1118 468.8334 786.47003 472.5262C 784.3362 484.80585 779.61255 495.79153 772.48785 505.79523C 770.42065 508.69778 767.65564 511.41568 764.62354 513.24536C 760.1005 515.9746 756.2184 513.20654 756.73676 507.96884C 756.9632 505.68076 757.5849 503.3762 758.382 501.20972C 761.93976 491.53992 766.0579 482.05298 769.1388 472.23795C 771.9921 463.14755 769.4936 460.16608 759.14276 459.34543zM640.6637 477.93738C 636.7676 490.26752 632.28455 502.45642 629.2671 514.998C 628.07635 519.94714 629.6621 525.79913 630.90924 531.01886C 631.7637 534.5949 634.42993 537.7427 638.9383 537.0079C 643.5066 536.2633 644.23126 532.3542 644.6864 528.6836C 647.41187 506.70267 654.4604 485.89407 662.37463 465.41348C 667.8887 451.14413 674.63116 437.35205 680.6858 423.28693C 681.9234 420.41196 682.90076 417.3239 683.3605 414.23904C 684.0445 409.64853 678.5975 402.1501 674.63654 401.62415C 670.12866 401.0256 666.81506 404.05194 665.1599 410.234C 664.7727 411.6801 664.34503 413.12076 663.83704 414.52823C 656.2817 435.46106 648.7096 456.38785 640.6637 477.93738zM417.72516 469.47836C 413.81888 468.2095 412.08875 469.87073 410.8869 473.64352C 407.60602 483.9427 403.53812 494.0015 400.52173 504.3707C 398.64282 510.82974 397.5195 517.6476 397.15463 524.3641C 396.86343 529.7245 400.7972 534.0895 404.66287 534.1314C 409.66815 534.18585 411.94727 530.7098 413.25888 526.4724C 417.0887 514.0994 420.59515 501.61957 424.71735 489.34583C 428.30643 478.65955 427.81915 476.32074 417.72516 469.47836zM485.21262 609.0261C 483.53476 609.0803 481.82727 609.3596 480.18506 609.1433C 476.37997 608.64215 472.6238 607.7459 468.81317 607.3193C 466.72305 607.08527 464.50748 607.2292 462.4543 607.68225C 461.19046 607.9611 459.1388 609.1237 459.1218 609.9252C 458.89752 620.49646 458.97238 631.07416 458.97238 641.4126C 462.74896 642.82166 463.94513 641.6104 463.9179 638.4744C 463.86444 632.3185 463.80728 626.15796 463.98245 620.0059C 464.13934 614.495 467.06113 611.2145 471.4608 611.1423C 475.87775 611.06976 478.7562 614.242 478.9417 619.8875C 479.14383 626.0381 479.10977 632.1995 479.03986 638.3547C 478.99966 641.8937 480.5766 642.6658 484.08383 641.5108C 484.08383 637.3413 484.02557 633.20264 484.10175 629.0664C 484.16592 625.58185 484.1027 622.05835 484.60892 618.62775C 485.25272 614.26465 487.65085 611.0157 492.4981 611.2275C 497.18054 611.432 499.04266 614.7326 499.20114 619.03644C 499.4458 625.6802 499.4316 632.3356 499.8025 638.9706C 499.86313 640.0558 501.33762 641.0621 502.1587 642.1048C 502.99527 641.1147 504.53244 640.1405 504.5554 639.13196C 504.71054 632.319 504.9648 625.4628 504.38666 618.68896C 503.48434 608.1177 495.5572 603.98474 485.21262 609.0261zM638.3074 625.4956C 638.3074 615.1117 638.3074 604.7278 638.3074 594.2206C 633.0381 594.21454 633.324 597.2593 633.30884 600.0759C 633.2943 602.7627 633.3057 605.4496 633.3057 608.3606C 615.85016 604.4822 607.43445 612.6269 610.07263 629.38794C 610.25305 630.5347 610.52277 631.6753 610.8494 632.7899C 613.3208 641.2241 620.99115 645.02844 629.28906 642.11005C 630.6867 641.61847 632.43854 641.43005 633.84174 641.8012C 636.98193 642.6319 638.2831 641.5408 638.294 638.47125C 638.30817 634.47815 638.30664 630.48505 638.3074 625.4956zM764.01184 654.4998C 767.82465 655.7193 768.20996 653.13513 768.3111 650.4871C 768.4276 647.4359 768.3382 644.37683 768.3382 640.80566C 770.26263 641.28876 771.0555 641.4176 771.7986 641.6849C 781.639 645.22516 789.67755 640.9993 791.4599 630.68024C 792.2017 626.3857 792.0161 621.6521 791.038 617.3973C 788.9991 608.5277 781.07385 604.7146 772.4948 607.6386C 771.09204 608.1167 769.3195 608.31104 767.93915 607.8977C 764.3706 606.82904 763.3124 608.475 763.3261 611.56976C 763.3889 625.7014 763.485 639.83295 764.01184 654.4998zM860.5802 607.0383C 848.0249 609.38916 845.4623 629.994 854.4839 638.99207C 858.96515 643.46173 866.62634 644.54755 871.9587 641.1444C 872.8973 640.5454 873.1935 638.9398 873.7864 637.79913C 872.5052 637.5711 871.20233 637.0784 869.9481 637.18085C 868.322 637.3136 866.7509 638.17316 865.1276 638.278C 858.974 638.675 854.76904 633.7845 855.76263 626.8494C 862.91595 626.8494 870.1669 626.8494 877.2653 626.8494C 880.06256 613.9388 873.65247 606.22614 860.5802 607.0383zM556.2104 610.39655C 551.1186 606.11505 542.68964 605.4341 537.2663 609.1789C 536.24615 609.88324 536.05914 611.7942 535.0707 614.13635C 550.3956 609.42395 555.0397 611.38873 553.28345 620.99207C 551.0532 620.6325 548.8227 620.15375 546.5669 619.9321C 540.39124 619.3253 535.4263 621.592 533.29456 625.8605C 531.2495 629.95544 531.98114 636.25903 534.88086 639.52716C 538.13293 643.19244 544.01575 644.0438 549.7039 641.97687C 551.16675 641.4453 553.0399 641.3845 554.54956 641.7784C 557.6077 642.57623 558.9692 641.7653 558.939 638.54156C 558.8814 632.3858 559.1585 626.21594 558.8196 620.0783C 558.6506 617.0188 557.4276 614.0174 556.2104 610.39655zM689.26746 629.47656C 689.2783 632.6419 689.081 635.8292 689.4121 638.9607C 689.5289 640.0649 690.93805 641.03253 691.7571 642.06256C 692.60547 641.0419 693.8302 640.14124 694.2038 638.96924C 694.63885 637.60443 694.3004 636.00134 694.34784 634.50323C 694.52686 628.8516 694.51685 623.1832 694.9877 617.5554C 695.33075 613.45447 698.2884 611.50415 702.1616 611.2129C 706.12555 610.91473 709.0594 612.8011 710.1052 616.635C 710.7927 619.15533 710.83234 621.89294 710.8811 624.53845C 710.9873 630.29407 710.9139 636.05304 710.9139 641.8106C 711.53217 642.1014 712.1505 642.39215 712.7688 642.6829C 713.8103 641.40295 715.7297 640.1351 715.7474 638.84106C 715.84534 631.69336 715.9499 624.4865 715.15515 617.4005C 714.13586 608.31274 707.01373 604.5084 698.3481 607.6054C 696.96985 608.098 695.18713 608.32983 693.84827 607.89374C 690.24005 606.7186 689.2749 608.3643 689.27295 611.4919C 689.2694 617.1563 689.2688 622.82074 689.26746 629.47656zM425.50784 425.78885C 423.1608 429.9677 420.96777 434.24335 418.42142 438.29703C 416.09103 442.00693 416.86966 445.23367 419.29025 448.36185C 421.79764 451.60223 425.04575 452.5158 429.01535 451.3575C 435.38815 449.4981 441.1503 441.86316 440.99805 435.271C 440.8206 427.58817 433.03534 422.37778 425.50784 425.78885zM414.21188 638.7307C 419.63144 631.7731 419.94437 624.0635 417.24612 616.08264C 415.22177 610.09503 410.56927 606.89667 404.47156 606.77216C 397.72662 606.6345 392.63763 609.1971 390.84897 615.3896C 389.42706 620.3124 388.75153 625.95996 389.64966 630.94244C 391.8239 643.0038 403.91064 646.88666 414.21188 638.7307zM382.6917 610.9601C 383.84625 607.10095 381.09787 607.23315 378.75894 607.30914C 375.27325 607.4223 374.60947 605.5615 374.77206 602.58185C 375.099 596.59045 379.52148 599.1585 384.0893 598.70544C 382.49356 596.75037 381.73947 594.9344 380.45764 594.41113C 375.03604 592.19794 370.59042 595.0821 369.83948 601.05774C 369.4797 603.9207 370.20822 607.3046 365.7126 607.6781C 365.1705 607.7232 364.31146 609.2378 364.39566 609.98096C 364.4727 610.66046 365.57788 611.6668 366.31882 611.7514C 369.63828 612.13074 369.62497 614.4485 369.62756 616.85596C 369.63516 624.0041 369.53635 631.15576 369.75977 638.29724C 369.80005 639.58514 371.17288 640.8315 371.93048 642.097C 372.8616 640.8156 374.53314 639.5698 374.59662 638.2468C 374.8831 632.27637 374.72064 626.284 374.70786 620.29956C 374.69135 612.57605 374.68637 612.57605 382.6917 610.9601zM736.1037 611.38116C 739.26306 612.0285 742.4068 612.7767 745.59015 613.2688C 746.71216 613.4422 747.93097 612.9893 749.1056 612.8223C 748.6993 611.7212 748.57684 609.95184 747.8364 609.6373C 744.9982 608.43176 742.0015 607.1107 738.99054 606.9042C 733.12103 606.50165 729.01294 609.3027 727.99384 613.5171C 726.9015 618.0349 729.01605 621.65125 734.56537 624.51404C 737.37213 625.9619 740.582 626.8425 743.0034 628.7493C 744.67334 630.06433 746.6659 633.33057 746.0792 634.59546C 745.20447 636.4816 742.27167 638.2137 740.0501 638.4472C 737.88086 638.6751 735.54803 636.78955 733.2038 636.1255C 731.8661 635.7465 730.36224 635.95435 728.93317 635.898C 729.47473 637.2363 729.6422 639.1504 730.63446 639.79504C 732.80676 641.2064 735.31335 642.49365 737.8339 642.9014C 744.01794 643.9017 749.76764 640.7855 750.98236 636.31445C 752.4454 630.9297 749.795 626.3395 743.43164 623.3475C 740.8731 622.1444 738.1326 621.26984 735.71436 619.8407C 731.72815 617.48486 731.7213 615.15063 736.1037 611.38116zM828.3499 627.5415C 828.36584 626.21277 828.35016 624.8828 828.40265 623.5555C 828.74384 614.92584 830.4461 613.1318 838.968 611.8535C 839.96216 611.70447 840.79034 610.44885 841.6955 609.70624C 840.9096 608.7943 840.25476 607.31213 839.3092 607.0948C 837.59717 606.7013 835.59955 606.6907 833.92523 607.19617C 831.4795 607.9345 829.312 609.964 826.56854 607.7213C 826.4054 607.58795 823.485 609.63873 823.4559 610.7166C 823.2003 620.17737 823.23303 629.6496 823.4245 639.11346C 823.44507 640.12976 825.01984 641.1146 825.87366 642.1141C 826.6857 641.0701 828.0975 640.08093 828.1986 638.97217C 828.51416 635.5118 828.3342 632.00616 828.3499 627.5415zM430.75708 630.44763C 430.75848 632.9354 430.47388 635.4697 430.86755 637.8938C 431.10727 639.36975 432.3928 640.6759 433.2086 642.0583C 433.98788 640.6903 435.35498 639.3596 435.44473 637.94775C 435.8335 631.8341 435.51974 625.6655 436.09885 619.5775C 436.612 614.18274 440.0086 611.641 445.17993 611.7338C 446.29758 611.7539 447.4159 611.73676 448.51547 611.73676C 448.85486 607.2103 446.5793 605.6315 441.596 607.08356C 438.9238 607.86224 436.49344 610.2815 433.6754 607.5201C 432.70886 608.6984 430.96533 609.8396 430.90692 611.0614C 430.61417 617.18427 430.76266 623.3282 430.75708 630.44763zM307.7802 605.5735C 307.78174 607.2358 307.7837 608.89813 307.7847 610.5604C 307.79028 619.86926 307.7059 629.1801 307.90866 638.4847C 307.9356 639.7215 309.42035 640.9266 310.22995 642.1463C 311.0946 641.17035 312.70096 640.2029 312.71225 639.2172C 312.87225 625.25604 312.85812 611.292 312.713 597.3304C 312.7037 596.4369 311.27463 595.55804 310.50604 594.6724C 309.63834 595.4927 308.1692 596.217 308.02 597.152C 307.6313 599.5877 307.82138 602.1158 307.7802 605.5735zM669.1032 599.8613C 669.1054 612.3335 669.0841 624.8058 669.1333 637.2777C 669.14124 639.29205 668.4249 642.2268 671.7694 641.9159C 672.68884 641.83044 674.0251 639.12634 674.04706 637.60767C 674.2317 624.8056 674.2349 611.9985 674.0528 599.19635C 674.0311 597.6681 672.5726 596.1602 671.78 594.6428C 670.8884 596.08575 669.9969 597.5287 669.1032 599.8613zM803.6879 597.2405C 804.979 598.1457 806.19684 599.22723 807.6188 599.817C 807.92755 599.9452 809.5536 598.2912 809.52814 597.49115C 809.4935 596.4025 808.1844 594.361 807.89276 594.4411C 806.4162 594.84705 805.0921 595.80786 803.6879 597.2405z" stroke="none" fill="#314589" fill-rule="nonzero" />
    <path d="M724.13654 80.85089C 751.50494 115.64944 764.2238 155.0064 760.5458 198.62608C 755.8071 254.82372 729.359 299.0583 681.2708 328.86694C 589.25867 385.90292 469.67908 342.89072 433.81027 240.48979C 402.27435 150.45874 454.5799 49.342125 546.9284 24.64592C 617.1184 5.875428 676.30774 25.886164 724.13654 80.85089zM640.4995 249.25504C 647.33026 249.25552 654.1639 249.13629 660.9907 249.30048C 665.22675 249.40236 666.87103 247.79842 666.853 243.42256C 666.7241 212.10132 666.73773 180.77916 666.8402 149.45772C 666.8535 145.38992 665.43005 143.74077 661.3105 143.83882C 653.4843 144.0251 645.64844 143.78967 637.8216 143.96022C 634.4358 144.034 632.2313 142.79007 630.42487 139.95435C 627.5639 135.463 624.20795 131.2849 621.3863 126.771164C 619.4573 123.685425 616.95874 122.699196 613.4781 122.72668C 599.65076 122.83581 585.8168 122.5729 571.99884 122.94853C 569.49664 123.01655 566.46155 124.909164 564.7176 126.8829C 561.3205 130.7275 558.4543 135.09804 555.76666 139.49435C 553.674 142.91731 551.00586 144.12836 547.09393 143.98447C 540.43835 143.73967 533.76794 143.89392 527.10376 143.88995C 519.22736 143.88527 519.2005 143.88959 519.19745 151.50418C 519.1854 181.49312 519.18524 211.48207 519.1958 241.47101C 519.19855 249.20502 519.2688 249.26134 527.0409 249.26158C 564.5271 249.26279 602.01324 249.25719 640.4995 249.25504z" stroke="none" fill="#D1AC43" fill-rule="nonzero" />
    <path d="M575.2252 449.24133C 594.9308 434.52573 614.6223 419.79126 634.35266 405.1089C 638.82 401.78452 641.2504 404.7516 643.5083 408.2651C 647.196 414.00357 647.18317 417.6766 643.13293 420.50485C 632.3721 428.0192 621.3689 435.20267 610.831 443.01532C 602.34985 449.3031 594.48883 456.42093 586.1851 462.95773C 582.9481 465.50595 578.9852 467.16107 575.8786 469.8339C 574.30994 471.18353 572.7951 474.11734 573.16 475.9573C 576.81384 494.38242 584.4138 510.80136 599.39417 522.8659C 602.5556 525.41205 606.815 526.5441 610.2971 528.75525C 614.764 531.5917 615.36835 534.9333 613.10187 540.4742C 611.2512 544.99866 607.8242 546.1162 603.3681 545.07874C 591.2663 542.2611 583.0035 534.0134 575.77856 524.76025C 567.7073 514.4231 562.2213 502.66016 558.9912 489.8954C 558.666 488.60986 558.1613 487.36417 557.6632 486.13098C 557.4881 485.69757 557.08276 485.35712 556.1023 484.1066C 554.28424 489.2717 552.58014 493.81058 551.08514 498.41733C 546.6659 512.0348 542.4256 525.7113 537.8842 539.28735C 536.90533 542.21375 536.37256 546.30347 531.6619 545.7972C 527.435 545.3429 522.199 539.8659 522.7945 535.6989C 523.7984 528.6745 524.8714 521.50446 527.21674 514.8546C 536.88696 487.4373 547.0467 460.19257 557.38995 432.326C 560.26404 425.92645 562.7746 420.08533 565.28516 414.2442C 565.2852 414.2442 565.2874 414.21973 565.5008 414.07666C 565.9469 413.66577 566.04175 413.35574 565.9987 413.00357C 565.9987 413.00357 566.00244 413.00122 566.25134 412.7557C 567.41235 410.06354 568.3244 407.61688 569.23645 405.17023C 569.23645 405.17023 569.1656 405.1378 569.40955 405.0562C 569.81006 404.6802 569.9665 404.38574 570.1229 404.09125C 570.39703 403.9356 570.6452 403.74606 571.26 403.32556C 571.97424 403.0406 572.21515 402.85028 572.37506 402.5576C 572.37506 402.5576 572.787 402.3275 573.3592 402.13507C 576.86163 401.7614 579.7919 401.58023 582.7221 401.39905C 582.7221 401.39905 582.7177 401.3293 582.7468 401.56952C 582.92883 402.1168 583.16724 402.3266 583.4911 402.43915C 583.4911 402.43915 583.71295 402.78354 583.91565 403.30518C 587.76807 409.82626 584.7869 415.31384 582.80206 420.8783C 582.80206 420.8783 582.9311 420.93442 582.6071 421.10358C 581.47705 423.14474 580.67096 425.01678 579.8648 426.8888C 579.8648 426.8888 579.63165 427.1893 579.3246 427.62155C 577.31036 431.99078 575.6032 435.92776 573.8961 439.86475C 573.8961 439.86475 573.65936 440.2561 573.3452 440.71292C 571.06085 445.72955 569.0907 450.2894 567.12054 454.8492C 567.5892 455.12653 568.05774 455.4038 568.5263 455.68112C 570.7593 453.53455 572.99225 451.38794 575.2252 449.24133z" stroke="none" fill="#CEAC49" fill-rule="nonzero" />
    <path d="M482.14334 508.17047C 488.22556 501.60028 494.17877 495.3817 499.77106 488.85394C 501.83484 486.445 503.48764 482.64642 500.3661 480.42975C 498.60626 479.18002 494.57074 479.68097 492.30652 480.8449C 482.00262 486.14185 473.02475 493.26587 465.6177 502.2578C 463.2886 505.0853 461.00906 507.95374 458.66483 510.7685C 456.25388 513.6634 454.06796 517.515 449.48425 515.99615C 445.313 514.6139 441.43338 507.28482 442.555 502.91693C 445.48474 491.5075 448.13303 479.96344 452.0596 468.88644C 458.54984 450.57733 465.8536 432.55203 473.0544 414.50284C 474.7027 410.37143 477.08627 406.46143 479.63962 402.80432C 480.46735 401.6188 483.12646 400.74933 484.589 401.12653C 493.7849 403.4986 495.53604 407.91193 491.8361 416.44778C 483.3285 436.0748 475.08325 455.81567 466.7826 475.53183C 466.42294 476.38614 466.57095 477.4541 466.37274 479.62372C 468.97916 477.84937 470.72186 476.95145 472.1097 475.66943C 478.91873 469.37952 487.06573 465.81836 495.9534 463.74872C 509.3895 460.61987 521.0147 470.9437 518.55475 484.56683C 517.53064 490.23822 514.8904 495.97046 511.70187 500.83383C 501.06537 517.05725 487.13882 529.22955 467.39755 533.0145C 460.97983 534.245 457.43176 532.0406 454.1095 526.6306C 452.06302 523.2981 453.78107 521.4907 456.45346 521.28516C 466.79526 520.48956 474.1604 514.1773 482.14334 508.17047z" stroke="none" fill="#CDAC49" fill-rule="nonzero" />
    <path d="M320.7247 542.30774C 308.77145 531.4694 307.25888 518.17786 310.0336 503.60263C 313.5337 485.21707 321.56775 468.4709 328.1405 451.1498C 334.31345 434.8824 343.4008 420.51227 353.2577 406.4867C 355.8966 402.73172 359.3502 399.44446 362.85236 396.4341C 365.6534 394.02643 369.2674 393.7682 371.6761 397.07758C 373.98422 400.24887 376.39578 403.88184 373.3929 407.98486C 358.93835 427.73505 348.0241 449.43167 339.18884 472.1116C 334.50647 484.13116 330.66208 496.60245 327.81604 509.18127C 324.0058 526.0217 331.7002 533.68396 348.86234 530.844C 358.03113 529.32684 367.02972 526.753 376.07504 524.5333C 379.22943 523.7592 382.0491 523.4364 383.74423 526.95166C 385.31158 530.2019 383.3982 532.21014 381.2551 534.28687C 367.97473 547.15625 351.88358 550.7574 334.20343 547.9734C 329.62778 547.2529 325.38553 544.4149 320.7247 542.30774z" stroke="none" fill="#CDAC49" fill-rule="nonzero" />
    <path d="M815.4775 493.49817C 818.9993 483.93747 822.3749 474.75452 825.935 465.06943C 824.183 464.43112 822.16156 464.07785 820.60956 463.02966C 818.7807 461.79456 815.73694 459.3215 816.0596 458.499C 817.086 455.88232 819.42816 453.78046 821.279 451.49344C 821.35156 451.4038 821.6083 451.4126 821.76306 451.4473C 832.75 453.91043 836.5079 446.2439 840.3434 438.40704C 842.2387 434.53464 844.2508 430.5545 847.0354 427.33755C 849.0475 425.01315 852.2543 423.06992 855.2386 422.44943C 857.57355 421.964 861.3795 423.0198 862.6996 424.77158C 863.97284 426.46127 863.66394 430.24805 862.6859 432.52838C 861.00104 436.4569 858.22186 439.90973 855.97614 443.60724C 855.0514 445.1297 854.31866 446.76877 852.83673 449.63498C 856.0523 449.63498 858.2173 449.72427 860.372 449.61377C 863.5239 449.45215 866.67896 448.85718 869.81384 448.97003C 874.75287 449.14786 878.6887 454.89066 876.6513 459.36743C 875.93744 460.93588 873.13513 462.18744 871.1473 462.4266C 864.5462 463.2208 857.8878 463.65332 851.2394 463.89395C 847.50305 464.0292 845.0511 465.5591 843.11865 468.6701C 834.8438 481.9913 831.95135 497.03638 829.08606 512.0815C 828.27747 516.3274 830.2676 518.5574 834.67316 519.0895C 843.6494 520.1737 851.2764 516.84454 858.7689 512.5369C 860.7769 511.38245 862.81946 508.22134 865.69476 511.1472C 868.525 514.02716 868.6536 517.45776 866.8078 520.8221C 863.08655 527.60455 856.37445 530.5671 849.6115 532.80786C 844.4728 534.5105 838.8998 535.381 833.4738 535.63464C 823.4128 536.1051 813.0141 525.9942 813.1275 515.6434C 813.207 508.3804 814.5515 501.13126 815.4775 493.49817z" stroke="none" fill="#CCAB4A" fill-rule="nonzero" />
    <path d="M723.6493 504.6836C 715.9887 518.0123 705.73914 527.61487 691.1059 532.22845C 672.6315 538.05316 663.20825 520.32166 665.68933 506.88486C 669.28375 487.41882 679.7176 472.51352 696.5712 462.464C 705.2631 457.28116 714.6305 454.64783 724.0929 461.77927C 728.2667 464.92493 730.52264 468.88983 731.1165 473.88657C 732.4277 484.91986 729.4525 494.97086 723.6493 504.6836zM700.54224 510.0739C 708.721 502.21976 712.94476 492.52316 713.3099 481.291C 713.4653 476.51062 710.31714 474.56534 706.53064 477.19168C 695.83014 484.6137 687.79486 494.19397 685.61475 507.48544C 685.2414 509.76147 686.16003 513.41223 687.7847 514.524C 689.3885 515.62134 692.7567 514.6671 695.1385 513.92834C 696.9419 513.369 698.41144 511.73334 700.54224 510.0739z" stroke="none" fill="#CDAC48" fill-rule="nonzero" />
    <path d="M759.52765 459.2869C 769.4936 460.16608 771.9921 463.14755 769.1388 472.23795C 766.0579 482.05298 761.93976 491.53992 758.382 501.20972C 757.5849 503.3762 756.9632 505.68076 756.73676 507.96884C 756.2184 513.20654 760.1005 515.9746 764.62354 513.24536C 767.65564 511.41568 770.42065 508.69778 772.48785 505.79523C 779.61255 495.79153 784.3362 484.80585 786.47003 472.5262C 787.1118 468.8334 790.44604 464.84802 793.65826 462.55072C 797.8725 459.53683 805.4877 465.6354 804.7822 472.00385C 804.06305 478.4962 801.6796 484.82635 799.80383 491.1621C 797.97003 497.35593 795.58594 503.39633 793.95557 509.63785C 792.72015 514.3672 793.8523 518.8928 797.3019 522.62103C 797.6405 522.987 797.9853 523.3564 798.2642 523.767C 801.00903 527.80725 800.8602 533.8189 797.9866 535.50854C 793.97034 537.86993 786.58966 536.01184 784.3514 531.88306C 783.17126 529.7062 782.36926 527.3121 781.5218 524.97064C 780.75275 522.84576 780.1532 520.65936 779.3475 518.0792C 774.5928 521.5436 770.51074 524.8344 766.11755 527.6376C 760.7624 531.0546 754.7717 533.6717 748.8948 529.4434C 742.475 524.8245 738.3192 518.9029 739.1956 510.00748C 740.9397 492.3051 748.2909 476.77325 756.5872 461.5168C 757.0854 460.6007 758.2749 460.06052 759.52765 459.2869z" stroke="none" fill="#CDAC4A" fill-rule="nonzero" />
    <path d="M640.9026 477.6267C 648.7096 456.38785 656.2817 435.46106 663.83704 414.52823C 664.34503 413.12076 664.7727 411.6801 665.1599 410.234C 666.81506 404.05194 670.12866 401.0256 674.63654 401.62415C 678.5975 402.1501 684.0445 409.64853 683.3605 414.23904C 682.90076 417.3239 681.9234 420.41196 680.6858 423.28693C 674.63116 437.35205 667.8887 451.14413 662.37463 465.41348C 654.4604 485.89407 647.41187 506.70267 644.6864 528.6836C 644.23126 532.3542 643.5066 536.2633 638.9383 537.0079C 634.42993 537.7427 631.7637 534.5949 630.90924 531.01886C 629.6621 525.79913 628.07635 519.94714 629.2671 514.998C 632.28455 502.45642 636.7676 490.26752 640.9026 477.6267z" stroke="none" fill="#CDAC49" fill-rule="nonzero" />
    <path d="M418.05908 469.6545C 427.81915 476.32074 428.30643 478.65955 424.71735 489.34583C 420.59515 501.61957 417.0887 514.0994 413.25888 526.4724C 411.94727 530.7098 409.66815 534.18585 404.66287 534.1314C 400.7972 534.0895 396.86343 529.7245 397.15463 524.3641C 397.5195 517.6476 398.64282 510.82974 400.52173 504.3707C 403.53812 494.0015 407.60602 483.9427 410.8869 473.64352C 412.08875 469.87073 413.81888 468.2095 418.05908 469.6545z" stroke="none" fill="#CDAC4A" fill-rule="nonzero" />
    <path d="M485.53827 608.80133C 495.5572 603.98474 503.48434 608.1177 504.38666 618.68896C 504.9648 625.4628 504.71054 632.319 504.5554 639.13196C 504.53244 640.1405 502.99527 641.1147 502.1587 642.1048C 501.33762 641.0621 499.86313 640.0558 499.8025 638.9706C 499.4316 632.3356 499.4458 625.6802 499.20114 619.03644C 499.04266 614.7326 497.18054 611.432 492.4981 611.2275C 487.65085 611.0157 485.25272 614.26465 484.60892 618.62775C 484.1027 622.05835 484.16592 625.58185 484.10175 629.0664C 484.02557 633.20264 484.08383 637.3413 484.08383 641.5108C 480.5766 642.6658 478.99966 641.8937 479.03986 638.3547C 479.10977 632.1995 479.14383 626.0381 478.9417 619.8875C 478.7562 614.242 475.87775 611.06976 471.4608 611.1423C 467.06113 611.2145 464.13934 614.495 463.98245 620.0059C 463.80728 626.15796 463.86444 632.3185 463.9179 638.4744C 463.94513 641.6104 462.74896 642.82166 458.97238 641.4126C 458.97238 631.07416 458.89752 620.49646 459.1218 609.9252C 459.1388 609.1237 461.19046 607.9611 462.4543 607.68225C 464.50748 607.2292 466.72305 607.08527 468.81317 607.3193C 472.6238 607.7459 476.37997 608.64215 480.18506 609.1433C 481.82727 609.3596 483.53476 609.0803 485.53827 608.80133zM463.33536 614.499C 462.93228 613.3523 462.52924 612.20557 462.12616 611.05884C 461.65018 611.1625 461.17422 611.2662 460.69824 611.3699C 460.69824 620.19543 460.69824 629.02094 460.69824 637.84644C 460.9473 637.8469 461.19638 637.8474 461.44543 637.84784C 462.00534 630.3013 462.56525 622.75464 463.33536 614.499z" stroke="none" fill="#BEA75F" fill-rule="nonzero" />
    <path d="M638.3096 625.9938C 638.30664 630.48505 638.30817 634.47815 638.294 638.47125C 638.2831 641.5408 636.98193 642.6319 633.84174 641.8012C 632.43854 641.43005 630.6867 641.61847 629.28906 642.11005C 620.99115 645.02844 613.3208 641.2241 610.8494 632.7899C 610.52277 631.6753 610.25305 630.5347 610.07263 629.38794C 607.43445 612.6269 615.85016 604.4822 633.3057 608.3606C 633.3057 605.4496 633.2943 602.7627 633.30884 600.0759C 633.324 597.2593 633.0381 594.21454 638.3074 594.2206C 638.3074 604.7278 638.3074 615.1117 638.3096 625.9938zM633.3237 625.4563C 633.3234 623.6333 633.19214 621.79895 633.3482 619.98944C 633.76447 615.1628 631.29114 612.3958 626.9257 611.3546C 622.3934 610.27344 618.5702 611.73865 616.5894 616.1271C 613.75073 622.4162 614.15656 628.76495 617.5913 634.71893C 619.8019 638.55096 624.38635 639.5583 628.49506 637.7755C 633.7749 635.4844 633.51917 630.96136 633.3237 625.4563z" stroke="none" fill="#C2A85B" fill-rule="nonzero" />
    <path d="M763.7905 654.2322C 763.485 639.83295 763.3889 625.7014 763.3261 611.56976C 763.3124 608.475 764.3706 606.82904 767.93915 607.8977C 769.3195 608.31104 771.09204 608.1167 772.4948 607.6386C 781.07385 604.7146 788.9991 608.5277 791.038 617.3973C 792.0161 621.6521 792.2017 626.3857 791.4599 630.68024C 789.67755 640.9993 781.639 645.22516 771.7986 641.6849C 771.0555 641.4176 770.26263 641.28876 768.3382 640.80566C 768.3382 644.37683 768.4276 647.4359 768.3111 650.4871C 768.20996 653.13513 767.82465 655.7193 763.7905 654.2322zM768.2947 627.2797C 768.29553 628.111 768.3414 628.9452 768.29 629.77325C 767.96454 635.0166 771.3982 637.32306 775.64557 638.38196C 780.06604 639.4841 783.58405 637.48773 785.3803 633.3592C 787.8831 627.6071 787.94824 621.6574 785.07855 616.0011C 783.05145 612.00574 779.48584 610.2352 775.0733 611.3718C 770.85864 612.4576 767.9956 614.95953 768.28174 619.8733C 768.40717 622.0272 768.2978 624.1949 768.2947 627.2797z" stroke="none" fill="#BEA55C" fill-rule="nonzero" />
    <path d="M860.963 606.97925C 873.65247 606.22614 880.06256 613.9388 877.2653 626.8494C 870.1669 626.8494 862.91595 626.8494 855.76263 626.8494C 854.76904 633.7845 858.974 638.675 865.1276 638.278C 866.7509 638.17316 868.322 637.3136 869.9481 637.18085C 871.20233 637.0784 872.5052 637.5711 873.7864 637.79913C 873.1935 638.9398 872.8973 640.5454 871.9587 641.1444C 866.62634 644.54755 858.96515 643.46173 854.4839 638.99207C 845.4623 629.994 848.0249 609.38916 860.963 606.97925zM854.6419 619.96204C 855.77954 620.78613 856.86786 622.2243 858.064 622.32043C 861.83826 622.62396 865.6548 622.3479 869.45135 622.4425C 872.8215 622.52637 873.4152 620.7186 872.6654 617.99347C 871.5382 613.8963 868.84265 611.45496 864.5668 611.1543C 859.9591 610.8303 856.57043 613.7206 854.6419 619.96204z" stroke="none" fill="#BEA55C" fill-rule="nonzero" />
    <path d="M556.4459 610.6931C 557.4276 614.0174 558.6506 617.0188 558.8196 620.0783C 559.1585 626.21594 558.8814 632.3858 558.939 638.54156C 558.9692 641.7653 557.6077 642.57623 554.54956 641.7784C 553.0399 641.3845 551.16675 641.4453 549.7039 641.97687C 544.01575 644.0438 538.13293 643.19244 534.88086 639.52716C 531.98114 636.25903 531.2495 629.95544 533.29456 625.8605C 535.4263 621.592 540.39124 619.3253 546.5669 619.9321C 548.8227 620.15375 551.0532 620.6325 553.28345 620.99207C 555.0397 611.38873 550.3956 609.42395 535.0707 614.13635C 536.05914 611.7942 536.24615 609.88324 537.2663 609.1789C 542.68964 605.4341 551.1186 606.11505 556.4459 610.6931zM541.5478 624.7925C 537.0345 626.4995 536.07117 630.0602 537.3487 634.1241C 538.58 638.0411 542.026 639.3802 545.7749 638.66425C 549.76105 637.9031 553.4808 636.3156 554.1279 631.40845C 554.5965 627.8548 553.26294 625.4762 549.66956 624.9041C 547.25543 624.5197 544.7612 624.63806 541.5478 624.7925z" stroke="none" fill="#C0A75D" fill-rule="nonzero" />
    <path d="M689.2672 628.98083C 689.2688 622.82074 689.2694 617.1563 689.27295 611.4919C 689.2749 608.3643 690.24005 606.7186 693.84827 607.89374C 695.18713 608.32983 696.96985 608.098 698.3481 607.6054C 707.01373 604.5084 714.13586 608.31274 715.15515 617.4005C 715.9499 624.4865 715.84534 631.69336 715.7474 638.84106C 715.7297 640.1351 713.8103 641.40295 712.7688 642.6829C 712.1505 642.39215 711.53217 642.1014 710.9139 641.8106C 710.9139 636.05304 710.9873 630.29407 710.8811 624.53845C 710.83234 621.89294 710.7927 619.15533 710.1052 616.635C 709.0594 612.8011 706.12555 610.91473 702.1616 611.2129C 698.2884 611.50415 695.33075 613.45447 694.9877 617.5554C 694.51685 623.1832 694.52686 628.8516 694.34784 634.50323C 694.3004 636.00134 694.63885 637.60443 694.2038 638.96924C 693.8302 640.14124 692.60547 641.0419 691.7571 642.06256C 690.93805 641.03253 689.5289 640.0649 689.4121 638.9607C 689.081 635.8292 689.2783 632.6419 689.2672 628.98083z" stroke="none" fill="#BEA55C" fill-rule="nonzero" />
    <path d="M425.7878 425.53375C 433.03534 422.37778 440.8206 427.58817 440.99805 435.271C 441.1503 441.86316 435.38815 449.4981 429.01535 451.3575C 425.04575 452.5158 421.79764 451.60223 419.29025 448.36185C 416.86966 445.23367 416.09103 442.00693 418.42142 438.29703C 420.96777 434.24335 423.1608 429.9677 425.7878 425.53375z" stroke="none" fill="#CCAB4A" fill-rule="nonzero" />
    <path d="M413.94635 638.985C 403.91064 646.88666 391.8239 643.0038 389.64966 630.94244C 388.75153 625.95996 389.42706 620.3124 390.84897 615.3896C 392.63763 609.1971 397.72662 606.6345 404.47156 606.77216C 410.56927 606.89667 415.22177 610.09503 417.24612 616.08264C 419.94437 624.0635 419.63144 631.7731 413.94635 638.985zM399.7721 611.89984C 393.53058 616.6858 391.86792 629.09326 396.64612 635.22797C 400.55844 640.2511 408.6579 640.1014 411.15704 634.2573C 412.93817 630.0924 413.37817 624.95306 413.00983 620.3614C 412.42355 613.0531 407.95792 610.3499 399.7721 611.89984z" stroke="none" fill="#C2A85B" fill-rule="nonzero" />
    <path d="M382.4054 611.2363C 374.68637 612.57605 374.69135 612.57605 374.70786 620.29956C 374.72064 626.284 374.8831 632.27637 374.59662 638.2468C 374.53314 639.5698 372.8616 640.8156 371.93048 642.097C 371.17288 640.8315 369.80005 639.58514 369.75977 638.29724C 369.53635 631.15576 369.63516 624.0041 369.62756 616.85596C 369.62497 614.4485 369.63828 612.13074 366.31882 611.7514C 365.57788 611.6668 364.4727 610.66046 364.39566 609.98096C 364.31146 609.2378 365.1705 607.7232 365.7126 607.6781C 370.20822 607.3046 369.4797 603.9207 369.83948 601.05774C 370.59042 595.0821 375.03604 592.19794 380.45764 594.41113C 381.73947 594.9344 382.49356 596.75037 384.0893 598.70544C 379.52148 599.1585 375.099 596.59045 374.77206 602.58185C 374.60947 605.5615 375.27325 607.4223 378.75894 607.30914C 381.09787 607.23315 383.84625 607.10095 382.4054 611.2363z" stroke="none" fill="#BBA45E" fill-rule="nonzero" />
    <path d="M735.72815 611.54517C 731.7213 615.15063 731.72815 617.48486 735.71436 619.8407C 738.1326 621.26984 740.8731 622.1444 743.43164 623.3475C 749.795 626.3395 752.4454 630.9297 750.98236 636.31445C 749.76764 640.7855 744.01794 643.9017 737.8339 642.9014C 735.31335 642.49365 732.80676 641.2064 730.63446 639.79504C 729.6422 639.1504 729.47473 637.2363 728.93317 635.898C 730.36224 635.95435 731.8661 635.7465 733.2038 636.1255C 735.54803 636.78955 737.88086 638.6751 740.0501 638.4472C 742.27167 638.2137 745.20447 636.4816 746.0792 634.59546C 746.6659 633.33057 744.67334 630.06433 743.0034 628.7493C 740.582 626.8425 737.37213 625.9619 734.56537 624.51404C 729.01605 621.65125 726.9015 618.0349 727.99384 613.5171C 729.01294 609.3027 733.12103 606.50165 738.99054 606.9042C 742.0015 607.1107 744.9982 608.43176 747.8364 609.6373C 748.57684 609.95184 748.6993 611.7212 749.1056 612.8223C 747.93097 612.9893 746.71216 613.4422 745.59015 613.2688C 742.4068 612.7767 739.26306 612.0285 735.72815 611.54517z" stroke="none" fill="#C0A75D" fill-rule="nonzero" />
    <path d="M332.80038 608.88135C 335.93814 608.18207 339.0536 607.0365 342.21832 606.8784C 348.37387 606.57104 352.4882 609.35724 353.22452 615.388C 354.18695 623.2704 354.05594 631.29706 354.1181 639.26385C 354.12518 640.1725 352.35117 641.09515 351.40298 642.0113C 350.72354 641.0394 349.49472 640.0889 349.456 639.09216C 349.24277 633.606 349.3668 628.1078 349.28735 622.61505C 349.17282 614.6958 346.72974 611.22076 341.33 611.128C 335.8545 611.03394 333.36142 614.33527 332.71472 623.0842C 332.61542 628.885 332.6968 633.8987 332.77817 638.9124C 332.79614 639.35455 332.81412 639.79675 332.4101 640.51715C 330.971 639.343 329.1333 637.92285 329.07495 636.43286C 328.77792 628.8523 328.71786 621.2417 329.1192 613.6705C 329.207 612.01373 331.5149 610.4746 332.80038 608.88135z" stroke="none" fill="#C2A85B" fill-rule="nonzero" />
    <path d="M828.34814 628.0298C 828.3342 632.00616 828.51416 635.5118 828.1986 638.97217C 828.0975 640.08093 826.6857 641.0701 825.87366 642.1141C 825.01984 641.1146 823.44507 640.12976 823.4245 639.11346C 823.23303 629.6496 823.2003 620.17737 823.4559 610.7166C 823.485 609.63873 826.4054 607.58795 826.56854 607.7213C 829.312 609.964 831.4795 607.9345 833.92523 607.19617C 835.59955 606.6907 837.59717 606.7013 839.3092 607.0948C 840.25476 607.31213 840.9096 608.7943 841.6955 609.70624C 840.79034 610.44885 839.96216 611.70447 838.968 611.8535C 830.4461 613.1318 828.74384 614.92584 828.40265 623.5555C 828.35016 624.8828 828.36584 626.21277 828.34814 628.0298z" stroke="none" fill="#BBA45E" fill-rule="nonzero" />
    <path d="M430.7566 629.9562C 430.76266 623.3282 430.61417 617.18427 430.90692 611.0614C 430.96533 609.8396 432.70886 608.6984 433.6754 607.5201C 436.49344 610.2815 438.9238 607.86224 441.596 607.08356C 446.5793 605.6315 448.85486 607.2103 448.51547 611.73676C 447.4159 611.73676 446.29758 611.7539 445.17993 611.7338C 440.0086 611.641 436.612 614.18274 436.09885 619.5775C 435.51974 625.6655 435.8335 631.8341 435.44473 637.94775C 435.35498 639.3596 433.98788 640.6903 433.20856 642.0583C 432.3928 640.6759 431.10727 639.36975 430.86755 637.8938C 430.47388 635.4697 430.75848 632.9354 430.7566 629.9562z" stroke="none" fill="#C2A85B" fill-rule="nonzero" />
    <path d="M593.3014 640.89246C 593.2608 640.4502 593.22015 640.00793 593.3563 638.8604C 593.6616 632.4085 594.01715 626.65356 593.8071 620.9193C 593.72314 618.6257 592.3929 616.3776 591.6299 614.1088C 591.6299 614.1088 591.2734 613.76843 591.006 613.3109C 589.7128 612.3167 588.687 611.7799 587.6612 611.2431C 587.2653 611.2036 586.86945 611.16406 585.9048 610.93384C 583.4161 611.15704 581.4961 611.57104 579.5762 611.9851C 579.1651 612.4329 578.7541 612.8808 577.6338 614.11926C 576.8844 616.23785 576.84436 617.56586 576.8043 618.89386C 576.74225 619.7444 576.68024 620.59485 576.4678 621.8986C 576.3173 622.35187 576.4647 622.7416 576.4647 622.7416C 576.4976 628.1806 576.5306 633.6197 576.20374 639.5675C 572.1728 640.4188 572.9631 637.5757 572.87964 635.65576C 572.4982 626.8802 572.2618 618.0983 571.9732 609.3187C 571.9732 609.3187 572.0913 609.0976 572.47925 609.0017C 573.5679 608.6089 574.26855 608.31195 574.96924 608.015C 576.4978 608.12354 578.27655 608.7972 579.5146 608.24927C 587.93054 604.52405 594.5049 607.2772 597.1634 616.7678C 597.097 623.6086 597.0908 629.598 597.06067 635.5873C 597.0474 638.2175 596.8255 640.7342 593.3014 640.89246z" stroke="none" fill="#C9AC56" fill-rule="nonzero" />
    <path d="M307.7804 605.0903C 307.82138 602.1158 307.6313 599.5877 308.02 597.152C 308.1692 596.217 309.63834 595.4927 310.50604 594.6724C 311.27463 595.55804 312.7037 596.4369 312.713 597.3304C 312.85812 611.292 312.87225 625.25604 312.71225 639.2172C 312.70096 640.2029 311.0946 641.17035 310.22995 642.1463C 309.42035 640.9266 307.9356 639.7215 307.90866 638.4847C 307.7059 629.1801 307.79028 619.86926 307.7847 610.5604C 307.7837 608.89813 307.78174 607.2358 307.7804 605.0903z" stroke="none" fill="#BEA75F" fill-rule="nonzero" />
    <path d="M669.10425 599.4165C 669.9969 597.5287 670.8884 596.08575 671.78 594.6428C 672.5726 596.1602 674.0311 597.6681 674.0528 599.19635C 674.2349 611.9985 674.2317 624.8056 674.04706 637.60767C 674.0251 639.12634 672.68884 641.83044 671.7694 641.9159C 668.4249 642.2268 669.14124 639.29205 669.1333 637.2777C 669.0841 624.8058 669.1054 612.3335 669.10425 599.4165z" stroke="none" fill="#BEA75F" fill-rule="nonzero" />
    <path d="M805.0232 607.93054C 805.0232 607.93054 805.267 607.7407 805.85315 607.779C 807.02 607.7898 807.60077 607.7623 808.1815 607.73486C 808.1815 607.73486 808.00415 607.94836 808.1774 608.08203C 808.4925 608.5177 808.67365 608.79395 808.89417 609.0443C 808.9309 619.0593 808.96765 629.0743 808.81494 639.7888C 808.4334 640.99915 808.2414 641.50995 808.0493 642.0207C 808.0493 642.0207 808.02686 642.0725 807.6965 641.8575C 806.6059 639.6128 805.24603 637.5999 805.18866 635.5506C 804.93115 626.34955 805.044 617.1382 805.0232 607.93054z" stroke="none" fill="#C9AC56" fill-rule="nonzero" />
    <path d="M571.8278 609.66907C 572.2618 618.0983 572.4982 626.8802 572.87964 635.65576C 572.9631 637.5757 572.1728 640.4188 576.13715 640.0302C 575.50464 640.7615 574.579 641.53876 573.65326 642.3161C 572.9457 641.1933 571.6382 640.0775 571.6248 638.94653C 571.51086 629.3057 571.63184 619.6622 571.8278 609.66907z" stroke="none" fill="#A5966B" fill-rule="nonzero" />
    <path d="M332.72305 608.5636C 331.5149 610.4746 329.207 612.01373 329.1192 613.6705C 328.71786 621.2417 328.77792 628.8523 329.07495 636.43286C 329.1333 637.92285 330.971 639.343 332.35117 640.8446C 331.2237 641.21075 329.73312 641.5277 328.04156 641.2024C 327.8195 629.83185 327.7984 619.1035 327.77728 608.37524C 329.4001 608.3321 331.02292 608.28894 332.72305 608.5636z" stroke="none" fill="#A5966B" fill-rule="nonzero" />
    <path d="M574.88965 449.1346C 572.99225 451.38794 570.7593 453.53455 568.5263 455.68112C 568.05774 455.4038 567.5892 455.12653 567.12054 454.8492C 569.0907 450.2894 571.06085 445.72955 573.2556 440.92334C 573.2485 442.23663 572.7151 443.82877 572.8782 445.34598C 573.01495 446.61862 573.96436 447.80392 574.88965 449.1346z" stroke="none" fill="#626268" fill-rule="nonzero" />
    <path d="M803.70123 596.90735C 805.0921 595.80786 806.4162 594.84705 807.89276 594.4411C 808.1844 594.361 809.4935 596.4025 809.52814 597.49115C 809.5536 598.2912 807.92755 599.9452 807.6188 599.817C 806.19684 599.22723 804.979 598.1457 803.70123 596.90735z" stroke="none" fill="#BEA75F" fill-rule="nonzero" />
    <path d="M804.72815 607.9741C 805.044 617.1382 804.93115 626.34955 805.18866 635.5506C 805.24603 637.5999 806.6059 639.6128 807.67676 641.83716C 806.702 641.7723 805.4166 641.51263 804.041 640.5389C 803.93207 629.30774 803.91315 618.7907 803.8943 608.2736C 804.0739 608.18835 804.2535 608.103 804.72815 607.9741z" stroke="none" fill="#A5966B" fill-rule="nonzero" />
    <path d="M583.06995 420.66888C 584.7869 415.31384 587.76807 409.82626 584.05365 403.45657C 588.96387 408.3516 588.788 413.0438 583.06995 420.66888z" stroke="none" fill="#626268" fill-rule="nonzero" />
    <path d="M565.00555 414.43018C 562.7746 420.08533 560.26404 425.92645 557.48804 431.98395C 559.72375 426.33896 562.22485 420.47757 565.00555 414.43018z" stroke="none" fill="#626268" fill-rule="nonzero" />
    <path d="M593.3385 641.2042C 596.8255 640.7342 597.0474 638.2175 597.06067 635.5873C 597.0908 629.598 597.097 623.6086 597.1904 617.133C 597.2679 616.6467 597.6596 616.87994 597.8153 617.47363C 597.8431 626.17975 597.7151 634.2922 597.58704 642.40454C 596.1832 642.10834 594.7794 641.81213 593.3385 641.2042z" stroke="none" fill="#A5966B" fill-rule="nonzero" />
    <path d="M327.60364 608.71155C 327.7984 619.1035 327.8195 629.83185 327.79456 640.96686C 327.64233 630.5984 327.53616 619.8231 327.60364 608.71155z" stroke="none" fill="#44464C" fill-rule="nonzero" />
    <path d="M803.73047 608.62146C 803.91315 618.7907 803.93207 629.30774 803.8971 640.2627C 803.75104 630.1235 803.6589 619.5463 803.73047 608.62146z" stroke="none" fill="#44464C" fill-rule="nonzero" />
    <path d="M591.7008 614.47253C 592.3929 616.3776 593.72314 618.6257 593.8071 620.9193C 594.01715 626.65356 593.6616 632.4085 593.3921 638.52844C 593.1424 633.3011 593.13275 627.6958 592.87885 622.1017C 592.7684 619.66815 592.15607 617.2574 591.7008 614.47253z" stroke="none" fill="#A5966B" fill-rule="nonzero" />
    <path d="M597.84076 642.14014C 597.7151 634.2922 597.8431 626.17975 597.99225 617.61743C 598.04047 625.4035 598.06744 633.63965 597.84076 642.14014z" stroke="none" fill="#44464C" fill-rule="nonzero" />
    <path d="M574.1717 439.69116C 575.6032 435.92776 577.31036 431.99078 579.2392 427.79147C 577.7897 431.5253 576.1185 435.52145 574.1717 439.69116z" stroke="none" fill="#626268" fill-rule="nonzero" />
    <path d="M332.86993 638.4628C 332.6968 633.8987 332.61542 628.885 332.66754 623.5011C 332.8546 628.09174 332.90817 633.0525 332.86993 638.4628z" stroke="none" fill="#A5966B" fill-rule="nonzero" />
    <path d="M579.8064 612.08984C 581.4961 611.57104 583.4161 611.15704 585.6142 610.8641C 583.9405 611.38824 581.9886 611.7914 579.8064 612.08984z" stroke="none" fill="#A5966B" fill-rule="nonzero" />
    <path d="M568.956 405.37518C 568.3244 407.61688 567.41235 410.06354 566.25146 412.75244C 566.8936 410.5232 567.78455 408.05167 568.956 405.37518z" stroke="none" fill="#626268" fill-rule="nonzero" />
    <path d="M582.4238 401.15024C 579.7919 401.58023 576.86163 401.7614 573.5476 401.99304C 576.15106 401.66278 579.13824 401.2821 582.4238 401.15024z" stroke="none" fill="#626268" fill-rule="nonzero" />
    <path d="M576.92004 618.6216C 576.84436 617.56586 576.8844 616.23785 577.0143 614.78827C 577.0813 615.8942 577.05853 617.1217 576.92004 618.6216z" stroke="none" fill="#A5966B" fill-rule="nonzero" />
    <path d="M580.14044 426.7064C 580.67096 425.01678 581.47705 423.14474 582.54987 421.06256C 582.0164 422.74295 581.21625 424.63345 580.14044 426.7064z" stroke="none" fill="#626268" fill-rule="nonzero" />
    <path d="M587.8634 611.4519C 588.687 611.7799 589.7128 612.3167 590.8788 613.09985C 590.03455 612.78436 589.0501 612.22253 587.8634 611.4519z" stroke="none" fill="#A5966B" fill-rule="nonzero" />
    <path d="M574.73944 607.9585C 574.26855 608.31195 573.5679 608.6089 572.58997 608.94275C 573.0449 608.6205 573.7773 608.26117 574.73944 607.9585z" stroke="none" fill="#A5966B" fill-rule="nonzero" />
    <path d="M807.94885 607.57886C 807.60077 607.7623 807.02 607.7898 806.00586 607.7555C 806.28705 607.6034 807.0016 607.5131 807.94885 607.57886z" stroke="none" fill="#A5966B" fill-rule="nonzero" />
    <path d="M808.33545 641.90234C 808.2414 641.50995 808.4334 640.99915 808.7708 640.2573C 808.818 640.6122 808.7198 641.1981 808.33545 641.90234z" stroke="none" fill="#A5966B" fill-rule="nonzero" />
    <path d="M583.4169 402.21173C 583.16724 402.3266 582.92883 402.1168 582.71204 401.57275C 582.95184 401.47467 583.18335 401.69086 583.4169 402.21173z" stroke="none" fill="#626268" fill-rule="nonzero" />
    <path d="M572.147 402.5939C 572.21515 402.85028 571.97424 403.0406 571.4175 403.15137C 571.3702 402.91467 571.6156 402.73334 572.147 402.5939z" stroke="none" fill="#626268" fill-rule="nonzero" />
    <path d="M569.91156 404.224C 569.9665 404.38574 569.81006 404.6802 569.4263 405.09143C 569.366 404.92438 569.5331 404.64056 569.91156 404.224z" stroke="none" fill="#626268" fill-rule="nonzero" />
    <path d="M576.5265 622.6278C 576.4647 622.7416 576.3173 622.35187 576.39197 622.31866C 576.4667 622.28546 576.58826 622.5141 576.5265 622.6278z" stroke="none" fill="#A5966B" fill-rule="nonzero" />
    <path d="M808.9066 608.7698C 808.67365 608.79395 808.4925 608.5177 808.26953 607.97974C 808.43195 607.9943 808.67554 608.2448 808.9066 608.7698z" stroke="none" fill="#A5966B" fill-rule="nonzero" />
    <path d="M565.8175 413.15985C 566.04175 413.35574 565.9469 413.66577 565.5023 414.06448C 565.30865 413.86404 565.4239 413.57095 565.8175 413.15985z" stroke="none" fill="#626268" fill-rule="nonzero" />
    <path d="M639.9995 249.25452C 602.01324 249.25719 564.5271 249.26279 527.0409 249.26158C 519.2688 249.26134 519.19855 249.20502 519.1958 241.47101C 519.18524 211.48207 519.1854 181.49312 519.19745 151.50418C 519.2005 143.88959 519.22736 143.88527 527.10376 143.88995C 533.76794 143.89392 540.43835 143.73967 547.09393 143.98447C 551.00586 144.12836 553.674 142.91731 555.76666 139.49435C 558.4543 135.09804 561.3205 130.7275 564.7176 126.8829C 566.46155 124.909164 569.49664 123.01655 571.99884 122.94853C 585.8168 122.5729 599.65076 122.83581 613.4781 122.72668C 616.95874 122.699196 619.4573 123.685425 621.3863 126.771164C 624.20795 131.2849 627.5639 135.463 630.42487 139.95435C 632.2313 142.79007 634.4358 144.034 637.8216 143.96022C 645.64844 143.78967 653.4843 144.0251 661.3105 143.83882C 665.43005 143.74077 666.8535 145.38992 666.8402 149.45772C 666.73773 180.77916 666.7241 212.10132 666.853 243.42256C 666.87103 247.79842 665.22675 249.40236 660.9907 249.30048C 654.1639 249.13629 647.33026 249.25552 639.9995 249.25452zM620.3618 144.16849C 619.50964 142.93538 618.48346 141.78683 617.83563 140.45436C 615.1689 134.9691 610.96387 133.13548 604.87354 133.51929C 596.7442 134.03162 588.5432 133.94737 580.402 133.54059C 574.96747 133.26903 571.2185 134.78374 568.5285 139.6935C 566.4619 143.4654 563.4708 146.71869 561.1697 150.37799C 559.2811 153.38123 556.89923 154.6617 553.3272 154.53394C 547.5052 154.32571 541.66394 154.65385 535.8421 154.44362C 531.6188 154.2911 529.88574 155.76144 529.91187 160.18709C 530.0543 184.33774 530.0372 208.4899 529.92926 232.64091C 529.91016 236.9181 531.483 238.54297 535.8077 238.48686C 548.9638 238.31618 562.1238 238.44601 575.2822 238.44641C 600.1001 238.44716 624.918 238.42665 649.7359 238.44958C 653.125 238.45271 656.02936 238.40417 656.01025 233.64307C 655.9107 208.8262 655.9463 184.00862 656.006 159.19147C 656.01434 155.71883 654.38617 154.42581 651.113 154.48656C 647.11694 154.56075 643.0384 153.9891 639.13715 154.60063C 630.33777 155.97995 624.41595 152.66672 620.3618 144.16849z" stroke="none" fill="#3E4D80" fill-rule="nonzero" />
    <path d="M700.2859 510.3253C 698.41144 511.73334 696.9419 513.369 695.1385 513.92834C 692.7567 514.6671 689.3885 515.62134 687.7847 514.524C 686.16003 513.41223 685.2414 509.76147 685.61475 507.48544C 687.79486 494.19397 695.83014 484.6137 706.53064 477.19168C 710.31714 474.56534 713.4653 476.51062 713.3099 481.291C 712.94476 492.52316 708.721 502.21976 700.2859 510.3253z" stroke="none" fill="#364781" fill-rule="nonzero" />
    <path d="M463.23026 614.8535C 462.56525 622.75464 462.00534 630.3013 461.44543 637.84784C 461.19638 637.8474 460.9473 637.8469 460.69824 637.84644C 460.69824 629.02094 460.69824 620.19543 460.69824 611.3699C 461.17422 611.2662 461.65018 611.1625 462.12616 611.05884C 462.52924 612.20557 462.93228 613.3523 463.23026 614.8535z" stroke="none" fill="#D1AC43" fill-rule="nonzero" />
    <path d="M633.32825 625.9333C 633.51917 630.96136 633.7749 635.4844 628.49506 637.7755C 624.38635 639.5583 619.8019 638.55096 617.5913 634.71893C 614.15656 628.76495 613.75073 622.4162 616.5894 616.1271C 618.5702 611.73865 622.3934 610.27344 626.9257 611.3546C 631.29114 612.3958 633.76447 615.1628 633.3482 619.98944C 633.19214 621.79895 633.3234 623.6333 633.32825 625.9333z" stroke="none" fill="#364781" fill-rule="nonzero" />
    <path d="M768.2948 626.818C 768.2978 624.1949 768.40717 622.0272 768.28174 619.8733C 767.9956 614.95953 770.85864 612.4576 775.0733 611.3718C 779.48584 610.2352 783.05145 612.00574 785.07855 616.0011C 787.94824 621.6574 787.8831 627.6071 785.3803 633.3592C 783.58405 637.48773 780.06604 639.4841 775.64557 638.38196C 771.3982 637.32306 767.96454 635.0166 768.29 629.77325C 768.3414 628.9452 768.29553 628.111 768.2948 626.818z" stroke="none" fill="#364781" fill-rule="nonzero" />
    <path d="M854.7041 619.5819C 856.57043 613.7206 859.9591 610.8303 864.5668 611.1543C 868.84265 611.45496 871.5382 613.8963 872.6654 617.99347C 873.4152 620.7186 872.8215 622.52637 869.45135 622.4425C 865.6548 622.3479 861.83826 622.62396 858.064 622.32043C 856.86786 622.2243 855.77954 620.78613 854.7041 619.5819z" stroke="none" fill="#39487C" fill-rule="nonzero" />
    <path d="M541.9253 624.662C 544.7612 624.63806 547.25543 624.5197 549.66956 624.9041C 553.26294 625.4762 554.5965 627.8548 554.1279 631.40845C 553.4808 636.3156 549.76105 637.9031 545.7749 638.66425C 542.026 639.3802 538.58 638.0411 537.3487 634.1241C 536.07117 630.0602 537.0345 626.4995 541.9253 624.662z" stroke="none" fill="#39487C" fill-rule="nonzero" />
    <path d="M400.1235 611.73047C 407.95792 610.3499 412.42355 613.0531 413.00983 620.3614C 413.37817 624.95306 412.93817 630.0924 411.15704 634.2573C 408.6579 640.1014 400.55844 640.2511 396.64612 635.22797C 391.86792 629.09326 393.53058 616.6858 400.1235 611.73047z" stroke="none" fill="#364781" fill-rule="nonzero" />
    <path d="M620.5738 144.45912C 624.41595 152.66672 630.33777 155.97995 639.13715 154.60063C 643.0384 153.9891 647.11694 154.56075 651.113 154.48656C 654.38617 154.42581 656.01434 155.71883 656.006 159.19147C 655.9463 184.00862 655.9107 208.8262 656.01025 233.64307C 656.02936 238.40417 653.125 238.45271 649.7359 238.44958C 624.918 238.42665 600.1001 238.44716 575.2822 238.44641C 562.1238 238.44601 548.9638 238.31618 535.8077 238.48686C 531.483 238.54297 529.91016 236.9181 529.92926 232.64091C 530.0372 208.4899 530.0543 184.33774 529.91187 160.18709C 529.88574 155.76144 531.6188 154.2911 535.8421 154.44362C 541.66394 154.65385 547.5052 154.32571 553.3272 154.53394C 556.89923 154.6617 559.2811 153.38123 561.1697 150.37799C 563.4708 146.71869 566.4619 143.4654 568.5285 139.6935C 571.2185 134.78374 574.96747 133.26903 580.402 133.54059C 588.5432 133.94737 596.7442 134.03162 604.87354 133.51929C 610.96387 133.13548 615.1689 134.9691 617.83563 140.45436C 618.48346 141.78683 619.50964 142.93538 620.5738 144.45912zM645.9511 173.5475C 645.80133 170.9878 645.65155 168.4281 644.74115 165.37332C 639.0772 165.17082 633.41327 164.86469 627.74945 164.86818C 626.8095 164.86876 625.8703 166.22034 624.7451 166.96794C 624.7451 166.96794 624.5586 166.9595 624.09784 167.36473C 624.2318 169.23753 624.3658 171.11035 624.789 173.7696C 624.9862 174.29225 625.1834 174.8149 625.7458 175.83676C 632.1589 175.72249 638.57196 175.60822 645.2746 174.77942C 645.3528 174.53564 645.431 174.29185 645.9511 173.5475zM558.5018 228.133C 575.167 228.12697 591.8323 228.08936 608.4973 228.1423C 611.7235 228.15256 614.0255 227.62358 614.00977 223.6108C 613.93896 205.61314 613.97437 187.615 613.9986 169.6171C 614.00275 166.54886 612.67065 165.0027 609.49805 165.00726C 588.0003 165.03809 566.50256 165.03757 545.0048 165.02324C 542.2067 165.02138 540.62317 166.07051 540.62775 169.1156C 540.65546 187.44705 540.65283 205.77863 540.60706 224.11005C 540.59937 227.20319 542.2055 228.15373 545.0045 228.1124C 549.1696 228.05087 553.3366 228.1197 558.5018 228.133zM635.47705 196.9423C 637.64056 196.91827 639.8068 196.95523 641.967 196.85727C 646.22015 196.66441 645.71124 193.43417 645.8193 190.6459C 645.9287 187.82108 645.21594 185.68239 641.7592 185.72917C 637.2661 185.79 632.7356 185.44847 628.2985 185.95627C 626.81354 186.12622 624.6648 188.19447 624.3705 189.69855C 623.268 195.33197 624.75635 196.81926 630.52954 196.93303C 631.8607 196.95927 633.19275 196.94124 635.47705 196.9423z" stroke="none" fill="#C9A949" fill-rule="nonzero" />
    <path d="M558.0023 228.13303C 553.3366 228.1197 549.1696 228.05087 545.0045 228.1124C 542.2055 228.15373 540.59937 227.20319 540.60706 224.11005C 540.65283 205.77863 540.65546 187.44705 540.62775 169.1156C 540.62317 166.07051 542.2067 165.02138 545.0048 165.02324C 566.50256 165.03757 588.0003 165.03809 609.49805 165.00726C 612.67065 165.0027 614.00275 166.54886 613.9986 169.6171C 613.97437 187.615 613.93896 205.61314 614.00977 223.6108C 614.0255 227.62358 611.7235 228.15256 608.4973 228.1423C 591.8323 228.08936 575.167 228.12697 558.0023 228.13303zM598.1046 217.59393C 602.016 217.95963 603.36694 216.09935 603.3118 212.29216C 603.1625 201.98453 603.1085 191.66988 603.3356 181.36504C 603.4334 176.92209 601.63727 175.6061 597.43243 175.65837C 583.799 175.82787 570.161 175.83064 556.52747 175.66907C 552.51294 175.62149 550.8534 176.8574 550.94257 181.07916C 551.1602 191.38437 551.18835 201.7017 550.9304 212.0051C 550.8185 216.47609 552.5348 217.73824 556.7752 217.6779C 570.24176 217.48634 583.71277 217.60643 598.1046 217.59393z" stroke="none" fill="#3D4C80" fill-rule="nonzero" />
    <path d="M625.3807 175.33752C 625.1834 174.8149 624.9862 174.29225 624.78125 172.96487C 624.70184 170.42659 624.6302 168.69304 624.5586 166.9595C 624.5586 166.9595 624.7451 166.96794 625.31067 166.9391C 629.3417 166.85512 632.84216 166.475 636.2619 166.84348C 639.2145 167.16158 642.07544 168.3311 644.98505 169.41179C 644.9898 170.08397 644.9864 170.46863 644.82935 171.17966C 644.357 172.66516 644.0384 173.82428 643.408 175.02148C 642.46857 175.06805 641.8408 175.07652 640.983 174.97227C 640.0985 174.93703 639.44415 175.0145 638.468 175.10748C 637.50195 175.11275 636.8578 175.10251 635.874 174.93472C 633.62006 174.88062 631.7056 174.98402 629.41235 175.09933C 627.81586 175.18666 626.59827 175.26208 625.3807 175.33752z" stroke="none" fill="#314589" fill-rule="nonzero" />
    <path d="M635.00073 196.94293C 633.19275 196.94124 631.8607 196.95927 630.52954 196.93303C 624.75635 196.81926 623.268 195.33197 624.3705 189.69855C 624.6648 188.19447 626.81354 186.12622 628.2985 185.95627C 632.7356 185.44847 637.2661 185.79 641.7592 185.72917C 645.21594 185.68239 645.9287 187.82108 645.8193 190.6459C 645.71124 193.43417 646.22015 196.66441 641.967 196.85727C 639.8068 196.95523 637.64056 196.91827 635.00073 196.94293zM629.0102 187.91628C 628.06445 189.40805 627.1188 190.89983 626.1731 192.39159C 627.6058 193.27719 628.9669 194.73933 630.4861 194.92775C 633.5968 195.31355 636.86224 195.39642 639.92255 194.83415C 641.39343 194.5639 642.5428 192.54384 643.83777 191.31616C 642.5171 190.12868 641.3221 188.14899 639.8501 187.91563C 636.60614 187.40132 633.22253 187.76785 629.0102 187.91628z" stroke="none" fill="#626268" fill-rule="nonzero" />
    <path d="M644.97687 169.12425C 642.07544 168.3311 639.2145 167.16158 636.2619 166.84348C 632.84216 166.475 629.3417 166.85512 625.4035 166.92892C 625.8703 166.22034 626.8095 164.86876 627.74945 164.86818C 633.41327 164.86469 639.0772 165.17082 645.0628 166.0278C 645.2486 167.49628 645.11273 168.31027 644.97687 169.12425z" stroke="none" fill="#626268" fill-rule="nonzero" />
    <path d="M641.21313 175.08498C 641.8408 175.07652 642.46857 175.06805 643.72205 175.15762C 644.56024 175.33507 644.77264 175.4145 644.98505 175.49394C 638.57196 175.60822 632.1589 175.72249 625.56323 175.58713C 626.59827 175.26208 627.81586 175.18666 629.75476 175.24524C 632.3886 175.28358 634.3011 175.18791 636.2136 175.09225C 636.8578 175.10251 637.50195 175.11275 638.69824 175.22717C 639.9046 175.24924 640.5589 175.16711 641.21313 175.08498z" stroke="none" fill="#A5966B" fill-rule="nonzero" />
    <path d="M644.98505 169.41179C 645.11273 168.31027 645.2486 167.49628 645.4431 166.27534C 645.65155 168.4281 645.80133 170.9878 645.6896 173.39583C 645.2797 172.4472 645.13135 171.65024 644.98303 170.85327C 644.9864 170.46863 644.9898 170.08397 644.98505 169.41179z" stroke="none" fill="#A5966B" fill-rule="nonzero" />
    <path d="M624.3282 167.16211C 624.6302 168.69304 624.70184 170.42659 624.6366 172.57164C 624.3658 171.11035 624.2318 169.23753 624.3282 167.16211z" stroke="none" fill="#A5966B" fill-rule="nonzero" />
    <path d="M644.82935 171.17966C 645.13135 171.65024 645.2797 172.4472 645.4687 173.6461C 645.431 174.29185 645.3528 174.53564 645.1298 175.13669C 644.77264 175.4145 644.56024 175.33507 644.0338 175.1195C 644.0384 173.82428 644.357 172.66516 644.82935 171.17966z" stroke="none" fill="#626268" fill-rule="nonzero" />
    <path d="M597.6433 217.59999C 583.71277 217.60643 570.24176 217.48634 556.7752 217.6779C 552.5348 217.73824 550.8185 216.47609 550.9304 212.0051C 551.18835 201.7017 551.1602 191.38437 550.94257 181.07916C 550.8534 176.8574 552.51294 175.62149 556.52747 175.66907C 570.161 175.83064 583.799 175.82787 597.43243 175.65837C 601.63727 175.6061 603.4334 176.92209 603.3356 181.36504C 603.1085 191.66988 603.1625 201.98453 603.3118 212.29216C 603.36694 216.09935 602.016 217.95963 597.6433 217.59999z" stroke="none" fill="#CDAB47" fill-rule="nonzero" />
    <path d="M635.874 174.93472C 634.3011 175.18791 632.3886 175.28358 630.13367 175.23334C 631.7056 174.98402 633.62006 174.88062 635.874 174.93472z" stroke="none" fill="#626268" fill-rule="nonzero" />
    <path d="M640.983 174.97227C 640.5589 175.16711 639.9046 175.24924 639.02014 175.21167C 639.44415 175.0145 640.0985 174.93703 640.983 174.97227z" stroke="none" fill="#626268" fill-rule="nonzero" />
    <path d="M629.453 187.84561C 633.22253 187.76785 636.60614 187.40132 639.8501 187.91563C 641.3221 188.14899 642.5171 190.12868 643.83777 191.31616C 642.5428 192.54384 641.39343 194.5639 639.92255 194.83415C 636.86224 195.39642 633.5968 195.31355 630.4861 194.92775C 628.9669 194.73933 627.6058 193.27719 626.1731 192.3916C 627.1188 190.89983 628.06445 189.40805 629.453 187.84561z" stroke="none" fill="#314589" fill-rule="nonzero" />
</g>
</svg>